<svg xmlns="http://www.w3.org/2000/svg" viewBox="0 0 500 500"><g id="freepik--Machine--inject-79"><g id="freepik--machine--inject-79"><g id="freepik--Print--inject-79"><path d="M415.71,338.3a12.89,12.89,0,0,1-5.91-1.44l-.11,0L355,305.2a13.26,13.26,0,0,0,4.09.66,12.93,12.93,0,0,0,6.57-1.79l54.45-31.43,56.4,32.56-54.31,31.36a12.74,12.74,0,0,1-6.44,1.74Z" style="fill:#fff"></path><path d="M420.06,272.79l56.13,32.41-54.11,31.24a12.58,12.58,0,0,1-6.37,1.73,12.91,12.91,0,0,1-5.87-1.43l-.07,0-1-.61-.07-.05L356,305.62A13.52,13.52,0,0,0,359,306a13.2,13.2,0,0,0,6.64-1.8l37.07-21.41,17.31-10m0-.31-17.44,10.07L365.55,304a12.93,12.93,0,0,1-6.51,1.77,13.09,13.09,0,0,1-6-1.44l55.43,32,.05,0,1.07.62.1,0a12.87,12.87,0,0,0,12.47-.31l54.52-31.47-56.67-32.72Z" style="fill:#e0e0e0"></path><g id="freepik--Chart--inject-79"><path d="M418.5,306.92l11,6.32-2.11,9c-7.51-.71-13.72-5.35-12.65-10.39C415.16,309.86,416.14,308.4,418.5,306.92Z" style="fill:#73ADFF"></path><path d="M418.5,306.92l11,6.32-2.11,9c-7.51-.71-13.72-5.35-12.65-10.39C415.16,309.86,416.14,308.4,418.5,306.92Z" style="fill:#fff;opacity:0.2"></path><path d="M445.45,308.55c4.14,4.42,1.55,10-6,12.61a25.39,25.39,0,0,1-9.7,1.33l2-9.18Z" style="fill:#73ADFF"></path><path d="M445.45,308.55c4.14,4.42,1.55,10-6,12.61a25.39,25.39,0,0,1-9.7,1.33l2-9.18Z" style="fill:#fff;opacity:0.30000000000000004"></path><path d="M444.63,307.81l-13.14,4.56-3.2-8.66C434.74,303.09,441,304.66,444.63,307.81Z" style="fill:#73ADFF"></path><path d="M426.62,304l2.88,7.81-9.78-5.65A20,20,0,0,1,426.62,304Z" style="fill:#73ADFF"></path><path d="M426.62,304l2.88,7.81-9.78-5.65A20,20,0,0,1,426.62,304Z" style="fill:#fff;opacity:0.5"></path></g><path d="M413.62,304.5a.54.54,0,0,1-.27-.07l-17.44-10.07a.53.53,0,0,1,.54-.92l17.44,10.06a.53.53,0,0,1,.2.73A.55.55,0,0,1,413.62,304.5Z" style="fill:#455a64"></path><path d="M409.26,307a.48.48,0,0,1-.26-.07l-17.44-10.06a.54.54,0,1,1,.53-.93L409.53,306a.53.53,0,0,1-.27,1Z" style="fill:#455a64"></path><path d="M418,302a.48.48,0,0,1-.26-.07l-17.45-10.06a.55.55,0,0,1-.19-.74.54.54,0,0,1,.73-.19L418.25,301a.53.53,0,0,1,.2.73A.53.53,0,0,1,418,302Z" style="fill:#455a64"></path><path d="M422.34,299.46a.48.48,0,0,1-.26-.07l-17.44-10.06a.54.54,0,0,1,.53-.93l17.44,10.06a.53.53,0,0,1-.27,1Z" style="fill:#455a64"></path><path d="M457.21,309.49a.56.56,0,0,1-.27-.08L413.41,284.3a.55.55,0,0,1-.19-.74.53.53,0,0,1,.73-.19l43.53,25.11a.55.55,0,0,1,.19.74A.53.53,0,0,1,457.21,309.49Z" style="fill:#455a64"></path><path d="M461.57,307a.52.52,0,0,1-.27-.07l-43.58-25.16a.54.54,0,0,1,.53-.93L461.84,306a.55.55,0,0,1,.19.74A.53.53,0,0,1,461.57,307Z" style="fill:#455a64"></path><path d="M402.62,325.36V275A12.92,12.92,0,0,0,396.7,264l-1.19-.69-55.46-32A12.89,12.89,0,0,1,346,242.24v50.4a12.94,12.94,0,0,0,5.88,10.92l.07,0,1.18.68,55.43,32A12.94,12.94,0,0,1,402.62,325.36Z" style="fill:#e0e0e0"></path><path d="M402.62,325.36V275A12.92,12.92,0,0,0,396.7,264l-1.19-.69-55.46-32A12.89,12.89,0,0,1,346,242.24v50.4a12.94,12.94,0,0,0,5.88,10.92l.07,0,1.18.68,55.43,32A12.94,12.94,0,0,1,402.62,325.36Z" style="opacity:0.15"></path><path d="M307,242.29l19.45-11.23a12.76,12.76,0,0,1,6.45-1.75,13,13,0,0,1,5.78,1.38l54.95,31.72a13.2,13.2,0,0,0-4.08-.66,13,13,0,0,0-6.58,1.8L363.4,274.84Z" style="fill:#fff"></path><path d="M332.9,229.44a12.79,12.79,0,0,1,5.71,1.36l1.31.75L392.63,262a12.85,12.85,0,0,0-3.08-.37,13.14,13.14,0,0,0-6.65,1.81l-19.5,11.25-17.3-10-38.83-22.41,19.24-11.11a12.69,12.69,0,0,1,6.39-1.74m0-.27a13,13,0,0,0-6.52,1.77l-19.65,11.35L346,264.93,363.4,275,383,263.66a12.88,12.88,0,0,1,6.51-1.77,13,13,0,0,1,6,1.45l-55.46-32-1.31-.75a13,13,0,0,0-5.84-1.4Z" style="fill:#e0e0e0"></path></g><path d="M380.83,370.63q-1.47-4.19-8.71-5L276.22,421V431Z" style="fill:#455a64"></path><path d="M171.61,370.63q1.48-4.19,8.72-5L276.22,421V431Z" style="fill:#37474f"></path><polygon points="276.22 420.96 276.22 275 250.07 244.8 206.48 219.63 206.48 380.69 276.22 420.96" style="fill:#73ADFF"></polygon><polygon points="276.22 420.96 276.22 275 250.07 244.8 206.48 219.63 206.48 380.69 276.22 420.96" style="fill:#fff;opacity:0.45"></polygon><polygon points="276.22 420.96 372.12 365.59 372.12 219.63 276.22 275 276.22 420.96" style="fill:#73ADFF"></polygon><polygon points="276.22 420.96 372.12 365.59 372.12 219.63 276.22 275 276.22 420.96" style="fill:#fff;opacity:0.65"></polygon><polygon points="372.12 219.63 345.96 189.44 302.37 164.27 206.48 219.63 250.07 244.8 276.22 275 372.12 219.63" style="fill:#73ADFF"></polygon><polygon points="372.12 219.63 345.96 189.44 302.37 164.27 206.48 219.63 250.07 244.8 276.22 275 372.12 219.63" style="fill:#fff;opacity:0.75"></polygon><polygon points="345.96 189.44 250.07 244.8 206.48 219.63 302.37 164.27 345.96 189.44" style="fill:#fff;opacity:0.25"></polygon><path d="M359.1,268l-10.26,5.89a6.45,6.45,0,0,0-2.91,5v5.88c0,1.86,1.31,2.61,2.91,1.68l10.26-5.89a6.42,6.42,0,0,0,2.91-5v-5.88C362,267.83,360.71,267.08,359.1,268Z" style="fill:#455a64"></path><path d="M356.34,274.64l-1.34-.77h0a1.78,1.78,0,0,0-1.78.18,5.61,5.61,0,0,0-2.52,4.38,1.78,1.78,0,0,0,.73,1.63h0l1.24.71.22-.38a2.47,2.47,0,0,0,.73-.28,5.61,5.61,0,0,0,2.52-4.38,2.49,2.49,0,0,0-.08-.64Z" style="fill:#73ADFF"></path><path d="M356.34,274.64l-1.34-.77h0a1.78,1.78,0,0,0-1.78.18,5.61,5.61,0,0,0-2.52,4.38,1.78,1.78,0,0,0,.73,1.63h0l1.24.71.22-.38a2.47,2.47,0,0,0,.73-.28,5.61,5.61,0,0,0,2.52-4.38,2.49,2.49,0,0,0-.08-.64Z" style="opacity:0.2"></path><path d="M354.5,274.79a5.56,5.56,0,0,0-2.53,4.38c0,1.61,1.13,2.26,2.53,1.46a5.61,5.61,0,0,0,2.52-4.38C357,274.63,355.89,274,354.5,274.79Z" style="fill:#73ADFF"></path><path d="M354.5,274.79a5.56,5.56,0,0,0-2.53,4.38c0,1.61,1.13,2.26,2.53,1.46a5.61,5.61,0,0,0,2.52-4.38C357,274.63,355.89,274,354.5,274.79Z" style="fill:#fff;opacity:0.25"></path><path d="M359.1,243l-10.26,5.9a6.45,6.45,0,0,0-2.91,5v5.88c0,1.86,1.31,2.61,2.91,1.68l10.26-5.89a6.44,6.44,0,0,0,2.91-5v-5.89C362,242.81,360.71,242.06,359.1,243Z" style="fill:#455a64"></path><path d="M356.34,249.62l-1.34-.77h0a1.78,1.78,0,0,0-1.78.18,5.59,5.59,0,0,0-2.52,4.38,1.78,1.78,0,0,0,.73,1.63h0l1.24.71.22-.37a2.47,2.47,0,0,0,.73-.28,5.61,5.61,0,0,0,2.52-4.38,2.63,2.63,0,0,0-.08-.65Z" style="fill:#73ADFF"></path><path d="M356.34,249.62l-1.34-.77h0a1.78,1.78,0,0,0-1.78.18,5.59,5.59,0,0,0-2.52,4.38,1.78,1.78,0,0,0,.73,1.63h0l1.24.71.22-.37a2.47,2.47,0,0,0,.73-.28,5.61,5.61,0,0,0,2.52-4.38,2.63,2.63,0,0,0-.08-.65Z" style="opacity:0.2"></path><path d="M354.5,249.77a5.56,5.56,0,0,0-2.53,4.37c0,1.62,1.13,2.27,2.53,1.46a5.57,5.57,0,0,0,2.52-4.37C357,249.61,355.89,249,354.5,249.77Z" style="fill:#73ADFF"></path><path d="M354.5,249.77a5.56,5.56,0,0,0-2.53,4.37c0,1.62,1.13,2.27,2.53,1.46a5.57,5.57,0,0,0,2.52-4.37C357,249.61,355.89,249,354.5,249.77Z" style="fill:#fff;opacity:0.25"></path><path d="M337.69,253.05l-49.75,28.7a3.55,3.55,0,0,0-1.61,2.79v13.74c0,1,.72,1.44,1.61.93l49.75-28.7a3.55,3.55,0,0,0,1.61-2.79V254C339.3,253,338.58,252.53,337.69,253.05Z" style="fill:#455a64"></path><path d="M336.28,259.1a3.46,3.46,0,0,1-1.61,2.68L291,287c-.89.51-1.61.14-1.61-.82a3.48,3.48,0,0,1,1.61-2.68l43.71-25.2C335.56,257.77,336.28,258.14,336.28,259.1Z" style="fill:#73ADFF"></path><path d="M336.28,259.1a3.46,3.46,0,0,1-1.61,2.68L291,287c-.89.51-1.61.14-1.61-.82a3.48,3.48,0,0,1,1.61-2.68l43.71-25.2C335.56,257.77,336.28,258.14,336.28,259.1Z" style="fill:#fff;opacity:0.45"></path><path d="M291,294c-.88.52-1.61.15-1.61-.81a3.51,3.51,0,0,1,1.61-2.69l19.56-11.27v3.47Z" style="fill:#73ADFF"></path><path d="M336.27,266.08a3.45,3.45,0,0,1-1.61,2.69l-24.14,13.9v-3.48l24.14-13.92C335.56,264.75,336.27,265.12,336.27,266.08Z" style="fill:#263238"></path><path d="M337.69,278.15l-49.75,28.7a3.55,3.55,0,0,0-1.61,2.79v13.74c0,1,.72,1.44,1.61.93l49.75-28.7a3.58,3.58,0,0,0,1.61-2.79V279.08C339.3,278.05,338.58,277.63,337.69,278.15Z" style="fill:#455a64"></path><path d="M336.28,284.2a3.48,3.48,0,0,1-1.61,2.68L291,312.08c-.89.52-1.61.15-1.61-.81a3.46,3.46,0,0,1,1.61-2.68l43.71-25.21C335.56,282.87,336.28,283.24,336.28,284.2Z" style="fill:#73ADFF"></path><path d="M336.28,284.2a3.48,3.48,0,0,1-1.61,2.68L291,312.08c-.89.52-1.61.15-1.61-.81a3.46,3.46,0,0,1,1.61-2.68l43.71-25.21C335.56,282.87,336.28,283.24,336.28,284.2Z" style="fill:#fff;opacity:0.45"></path><path d="M291,319.07c-.88.52-1.61.15-1.61-.81a3.51,3.51,0,0,1,1.61-2.69l13.51-7.79v3.49Z" style="fill:#73ADFF"></path><path d="M336.27,291.18a3.45,3.45,0,0,1-1.61,2.69l-30.19,17.4v-3.49l30.19-17.41C335.56,289.85,336.27,290.22,336.27,291.18Z" style="fill:#263238"></path><path d="M356.3,297.65a1.61,1.61,0,0,0-1.64.16l-65.09,37.58a5.13,5.13,0,0,0-2.32,4v55a1.62,1.62,0,0,0,.68,1.5l2.06,1.19a1.62,1.62,0,0,0,1.63-.16l65.1-37.58a5.17,5.17,0,0,0,2.32-4v-55a1.62,1.62,0,0,0-.67-1.49Z" style="fill:#73ADFF"></path><path d="M356.3,297.65a1.61,1.61,0,0,0-1.64.16l-65.09,37.58a5.13,5.13,0,0,0-2.32,4v55a1.62,1.62,0,0,0,.68,1.5l2.06,1.19a1.62,1.62,0,0,0,1.63-.16l65.1-37.58a5.17,5.17,0,0,0,2.32-4v-55a1.62,1.62,0,0,0-.67-1.49Z" style="fill:#fff;opacity:0.45"></path><path d="M291.62,336.57,356.72,299c1.28-.74,2.32-.14,2.32,1.34v55a5.17,5.17,0,0,1-2.32,4L291.62,397c-1.28.74-2.32.14-2.32-1.34v-55A5.13,5.13,0,0,1,291.62,336.57Z" style="fill:#73ADFF"></path><path d="M291.62,336.57,356.72,299c1.28-.74,2.32-.14,2.32,1.34v55a5.17,5.17,0,0,1-2.32,4L291.62,397c-1.28.74-2.32.14-2.32-1.34v-55A5.13,5.13,0,0,1,291.62,336.57Z" style="fill:#fff;opacity:0.35000000000000003"></path><path d="M289.92,397.08a.82.82,0,0,0,.35.17,1.69,1.69,0,0,1-.28-.12Z" style="fill:#73ADFF"></path><path d="M290.74,397.28a2.37,2.37,0,0,0,.34-.08A2.37,2.37,0,0,1,290.74,397.28Z" style="fill:#73ADFF"></path><path d="M290.42,397.27a1.69,1.69,0,0,0,.32,0A1.69,1.69,0,0,1,290.42,397.27Z" style="fill:#73ADFF"></path><path d="M289.3,395.63a1.81,1.81,0,0,0,.51,1.39l-1.89-1.08a1.6,1.6,0,0,1-.67-1.49v-55a4.66,4.66,0,0,1,.68-2.29l2,1.18a4.78,4.78,0,0,0-.67,2.3Z" style="fill:#73ADFF;opacity:0.5"></path><path d="M335.41,324.77c-3.84-2.22-8.8-1.8-14,1.17-10,5.76-17.78,19.28-17.78,30.79,0,5.95,2.12,10.45,6,12.67a10.71,10.71,0,0,0,5.41,1.41,17.33,17.33,0,0,0,8.54-2.58c10-5.75,17.78-19.28,17.78-30.79C341.38,331.49,339.26,327,335.41,324.77Zm1.68,12.67a29,29,0,0,1-2.29,10.68c-3.1.49-8.23-.2-10.61-1.47a63.82,63.82,0,0,1,11.49-15.6A13.17,13.17,0,0,1,337.09,337.44ZM330,327.66a6.44,6.44,0,0,1,3.29.83,5.74,5.74,0,0,1,.76.53,68.28,68.28,0,0,0-10.81,14,42.34,42.34,0,0,1,.23-13.23l.15-.1A13.08,13.08,0,0,1,330,327.66Zm-9.48,4.15a49.32,49.32,0,0,0,.47,13.8,20.59,20.59,0,0,1-8.55-4A34.54,34.54,0,0,1,320.5,331.81Zm-9.3,12.12a24.17,24.17,0,0,0,8.52,4.08,78.07,78.07,0,0,0-10.89,13.92,14.44,14.44,0,0,1-.86-5.2A30.44,30.44,0,0,1,311.2,343.93Zm.59,21.75a6.19,6.19,0,0,1-1.46-1.21,76.64,76.64,0,0,1,10.32-13.67,44.87,44.87,0,0,0,.22,14C317.33,366.71,314.13,367,311.79,365.68Zm11.46-2.33a45.46,45.46,0,0,1,.25-14.14,22.69,22.69,0,0,0,8.82,1.67c.43,0,.85,0,1.26,0A34.42,34.42,0,0,1,323.25,363.35Z" style="fill:#73ADFF;opacity:0.5"></path><path d="M325.81,350.17c-4,0-10.13-2.85-13.33-6.23l1.88-1.79c3,3.2,8.46,5.42,11.45,5.42Z" style="fill:#37474f"></path><path d="M312.68,367.81l-2.25-1.29a78.55,78.55,0,0,1,14.48-18.59l1.79,1.89A76.35,76.35,0,0,0,312.68,367.81Z" style="fill:#37474f"></path><path d="M324.55,368.47c-1.43-5.68-1.43-12.17,0-19.83l2.55.47c-1.34,7.28-1.34,13.41,0,18.73Z" style="fill:#37474f"></path><path d="M335.6,352.67c-4,0-8.62-1-10.66-2.83l1.74-1.93c2.05,1.86,10,2.85,12.86,1.61l1,2.38A13.26,13.26,0,0,1,335.6,352.67Z" style="fill:#37474f"></path><path d="M327,349.42l-2.35-1.1a64.44,64.44,0,0,1,14.42-19.1l1.67,2A61.61,61.61,0,0,0,327,349.42Z" style="fill:#37474f"></path><path d="M324.53,349.11c-1.41-7.49-1.4-14,0-19.83l2.53.61c-1.33,5.49-1.32,11.62,0,18.74Z" style="fill:#37474f"></path><path d="M318.34,372.59a10.71,10.71,0,0,1-5.42-1.4c-3.84-2.23-6-6.73-6-12.68,0-11.51,7.81-25,17.77-30.78,5.16-3,10.11-3.39,14-1.17s6,6.72,6,12.67c0,11.51-7.8,25-17.77,30.79A17.31,17.31,0,0,1,318.34,372.59Zm14.92-43.15a13.16,13.16,0,0,0-6.38,2c-8.62,5-15.63,17.12-15.63,27.07,0,4.36,1.36,7.54,3.82,9s5.89,1,9.66-1.17h0c8.62-5,15.63-17.12,15.63-27.07,0-4.35-1.35-7.53-3.82-9A6.5,6.5,0,0,0,333.26,329.44Z" style="fill:#455a64"></path><path d="M332.88,347.34,328,344.51h0a2.27,2.27,0,0,0-2.24.23,7,7,0,0,0-3.18,5.51,2.24,2.24,0,0,0,.93,2.06h0l4.8,2.76.28-.47a3.51,3.51,0,0,0,.92-.35,7.07,7.07,0,0,0,3.18-5.52,3.39,3.39,0,0,0-.1-.81Z" style="fill:#263238"></path><path d="M330.56,347.52a7.06,7.06,0,0,0-3.18,5.51c0,2,1.43,2.86,3.18,1.84a7,7,0,0,0,3.19-5.51C333.75,347.33,332.32,346.51,330.56,347.52Z" style="fill:#455a64"></path><g id="freepik--Keyboard--inject-79"><path d="M358.67,218.58a1.11,1.11,0,0,0-.26-1l-16.15-18.61a2,2,0,0,0-2.41-.27L266,241.38a1.49,1.49,0,0,0-.73.91c-.09.35-.65,2.61-.73,3a1.11,1.11,0,0,0,.26,1l16.14,18.6a2,2,0,0,0,2.41.28l73.83-42.63a1.5,1.5,0,0,0,.74-.91C358,221.27,358.58,218.94,358.67,218.58Z" style="fill:#37474f"></path><path d="M281.69,261.85l-16.16-18.53a1.25,1.25,0,0,1,.47-1.94l73.85-42.71a2,2,0,0,1,2.41.27l16.15,18.61a1.26,1.26,0,0,1-.48,1.95L284.1,262.12A2,2,0,0,1,281.69,261.85Z" style="fill:#455a64"></path><path d="M282.71,262.38l-.74,3a1.76,1.76,0,0,1-1-.52L264.8,246.28a1.11,1.11,0,0,1-.26-1l.73-3a1.11,1.11,0,0,0,.26,1l16.15,18.54A1.72,1.72,0,0,0,282.71,262.38Z" style="fill:#263238"></path><path d="M283.61,259.43h0l-1.6-1.85,3.25-1.87,1.66,1.86-3.25,1.87Zm-2.51-2.88a.05.05,0,0,1,0,0l-1.6-1.84,2.56-1.47,1.66,1.86-2.55,1.47Zm7,.26h0L286.51,255l2.55-1.47,1.66,1.86-2.55,1.47Zm-9.55-3.15h0l-1.6-1.84,4.12-2.38,1.67,1.86-4.12,2.38Zm6.35.67a.06.06,0,0,1-.05,0l-1.6-1.84,2-1.17,1.67,1.86-2,1.17Zm7,.27-.05,0-1.59-1.84,2.55-1.48,1.66,1.86L292,254.59Zm-3.73-2.18,0,0-1.6-1.84,2-1.17,1.66,1.86-2,1.17Zm-12.16-1.64s0,0,0,0l-1.6-1.84,3.25-1.87,1.66,1.86-3.24,1.87Zm19.73,1.6,0,0-1.6-1.84,18.43-10.65,1.67,1.87-18.44,10.64ZM284,250.54l0,0-1.6-1.84,2-1.17,1.66,1.86-2,1.17Zm7.57,0s0,0,0,0l-1.6-1.84,2-1.17,1.66,1.86-2,1.17Zm-18-2.6-.05,0L272,246l2-1.17,1.67,1.86-2,1.17Zm7,.26s0,0,0,0L279,246.3l2-1.17,1.66,1.86-2,1.17Zm6.69.47,0,0-1.6-1.84,2-1.17,1.66,1.86-2,1.17Zm7.57,0,0,0-1.6-1.84,2-1.17,1.67,1.86-2,1.17Zm-18-2.61h-.05l-1.6-1.85,2-1.17,1.66,1.86-2,1.17Zm7,.27,0,0-1.59-1.84,2-1.17,1.67,1.86-2,1.17Zm6.69.46s0,0,0,0l-1.6-1.84,2-1.17,1.67,1.86-2,1.17Zm-20.09-2.31,0,0-1.6-1.84,2.55-1.47,1.66,1.86-2.54,1.47Zm27.65,2.27,0,0-1.6-1.84,2-1.17,1.66,1.86-2,1.17Zm-18-2.6,0,0-1.6-1.84,2-1.17,1.66,1.86-2,1.17Zm7,.26s0,0,0,0l-1.6-1.84,2-1.17,1.66,1.86-2,1.17Zm6.69.47,0,0-1.6-1.84,2-1.17,1.66,1.86-2,1.17Zm7.57,0,0,0-1.6-1.84,2-1.17,1.66,1.86-2,1.17Zm-25.69-3.41,0,0-1.6-1.84,2-1.17,1.66,1.86-2,1.17Zm7.71.8h-.05l-1.59-1.85,2-1.17L285.6,241l-2,1.16Zm7,.27,0,0-1.6-1.84,2-1.17,1.66,1.86-2,1.17Zm6.69.46,0,0-1.6-1.84,2-1.17,1.66,1.86-2,1.17Zm7.57,0h-.05L303.2,241l2-1.17,1.67,1.87-2,1.16Zm-25.69-3.41h0l-1.6-1.85,2-1.17,1.66,1.86-2,1.17Zm7.7.81a.05.05,0,0,1,0,0l-1.6-1.84,2-1.17,1.66,1.86-2,1.17Zm7.05.26a.06.06,0,0,1-.05,0l-1.59-1.84,2-1.17,1.67,1.86-2,1.17Zm6.69.47,0,0-1.6-1.84,2-1.17,1.67,1.86-2,1.17Zm7.56,0,0,0-1.6-1.84,2-1.17,1.66,1.86-2,1.17Zm-25.68-3.41a.06.06,0,0,1-.05,0l-1.59-1.84,2-1.17,1.67,1.86-2,1.17Zm7.7.8h0l-1.6-1.85,2-1.17,1.66,1.87-2,1.16ZM315.55,241s0,0,0,0l-1.6-1.84,2.55-1.47,1.67,1.86L315.58,241Zm-18.33-2.4,0,0-1.6-1.84,2-1.17,1.66,1.86-2,1.17Zm6.69.46h0l-1.6-1.85,2-1.17,1.66,1.86-2,1.17Zm7.57,0h0l-1.6-1.85,2-1.17,1.66,1.87-2,1.16Zm-25.69-3.41h0l-1.6-1.85,2-1.17,1.66,1.86-2,1.17Zm7.71.81-.05,0-1.59-1.84,2-1.17,1.67,1.86-2,1.17Zm7,.26s0,0,0,0l-1.6-1.84,2-1.17,1.66,1.86-2,1.17Zm18.85,2.1s0,0,0,0l-1.6-1.84,2.55-1.47L322,237.3l-2.55,1.47Zm-12.16-1.63,0,0-1.6-1.84,2-1.17,1.66,1.86-2,1.17Zm7.57,0s0,0-.05,0l-1.6-1.84,2-1.17,1.66,1.86-2,1.17Zm-18-2.61h0l-1.6-1.85,2-1.17,1.66,1.87-2,1.16Zm7.05.27-.05,0-1.6-1.84,2-1.17,1.66,1.86-2,1.17Zm6.69.46h0l-1.6-1.85,2-1.17,1.67,1.86-2,1.17Zm-20-2.37h0l-1.6-1.84,2-1.17,1.66,1.86-2,1.17Zm32.68,3.7h0l-1.6-1.84,2.55-1.48,1.67,1.86-2.55,1.48Zm-5.12-1.37h0l-1.6-1.85,2-1.17,1.66,1.87-2,1.16Zm-18-2.6,0,0-1.6-1.84,2-1.17,1.66,1.86-2,1.17Zm7,.26h0l-1.6-1.85,2-1.17,1.66,1.86-2,1.17Zm6.69.47,0,0-1.6-1.84,2-1.17,1.66,1.86-2,1.17Zm-20-2.37s0,0,0,0l-1.6-1.84,2-1.17,1.66,1.86-2,1.17Zm33.2,3.4,0,0-1.6-1.84,3.25-1.88,1.66,1.86-3.24,1.88Zm-5.64-1.07,0,0-1.6-1.84,6.39-3.69,1.66,1.86-6.39,3.69Zm-18-2.61h-.05l-1.59-1.85,2-1.16,1.67,1.86-2,1.16Zm7,.27,0,0-1.6-1.84,2-1.17,1.66,1.86-2,1.17Zm6.69.46h0l-1.6-1.85,2-1.17,1.66,1.86-2,1.17Zm-20-2.36,0,0-1.6-1.84,2-1.17,1.67,1.86-2,1.17Zm9.57-.28,0,0-1.6-1.84,2-1.17,1.66,1.86-2,1.17Zm25.55,2.56h0l-1.6-1.85,2-1.16,1.66,1.86-2,1.16Zm-18.5-2.3h-.05l-1.6-1.85,2-1.17,1.66,1.86-2,1.17Zm6.69.47,0,0-1.6-1.84,1.85-1.07a.61.61,0,0,0,.27-.37.51.51,0,0,0-.08-.44l-2.1-2.42,2.37-1.37,4.17,4.74-4.82,2.79Zm-20-2.37,0,0-1.6-1.84,2-1.17,1.66,1.86-2,1.17Zm9.58-.28h0l-1.6-1.84,2-1.17,1.66,1.86-2,1.16Zm25.55,2.57a.06.06,0,0,1-.05,0L334,227.54l2-1.17,1.67,1.86-2,1.17Zm-18.51-2.3,0,0-1.6-1.84,2-1.17,1.66,1.86-2,1.17Zm-11.86-2.74h0l-1.6-1.85,2-1.17,1.66,1.86-2,1.17Zm8.14.56a.06.06,0,0,1,0,0l-1.59-1.84,2-1.17,1.67,1.86-2,1.17Zm25.54,2.56h0l-1.6-1.84,2-1.17,1.66,1.86-2,1.16Zm-5.82-1,0,0-1.6-1.84,2-1.17,1.66,1.86-2,1.17Zm-24.54-4.07,0,0-1.6-1.84,2-1.17,1.66,1.86-2,1.17Zm8.13.55h0l-1.6-1.84,3.6-2.08,1.67,1.86-3.6,2.07ZM343,225.17l0,0-1.6-1.84,5.34-3.09,1.67,1.86L343,225.17Zm-18.16-2.51h0l-1.6-1.85,2-1.17,1.66,1.86-2,1.17Zm-12.9-2.13h0l-1.59-1.85,2-1.17,1.67,1.86-2,1.17Zm28.56,1.75h0l-1.59-1.85,2-1.17,1.67,1.86-2,1.17Zm-12.34-1.53s0,0,0,0l-1.6-1.84,2-1.17,1.66,1.86-2,1.17Zm-5.82-1s0,0,0,0l-1.6-1.84,2-1.17,1.66,1.86-2,1.17Zm-7.09-1.16,0,0-1.6-1.84,2-1.17,1.66,1.86-2,1.17Zm34.38,2.72,0,0-1.6-1.84,2-1.17,1.66,1.86-2,1.17Zm-5.82-1s0,0,0,0l-1.6-1.84,2-1.17,1.66,1.86-2,1.17Zm-12.33-1.54h-.05L329.8,217l2-1.17,1.67,1.87-2,1.16Zm6.51.57a.05.05,0,0,1,0,0l-1.6-1.84,2-1.17,1.66,1.86-2,1.17Zm-12.33-1.54h-.05L324,216l2-1.17,1.67,1.86-2,1.16Zm-6.36-1.58s0,0,0,0l-1.6-1.84,2-1.17,1.66,1.86-2,1.17Zm33.65,3.14a.06.06,0,0,1-.05,0l-4.1-4.72,2-1.17,4.17,4.74-2,1.17Zm-5.82-1h0l-1.6-1.85,2-1.17,1.66,1.86-2,1.17Zm-5.82-1h0l-1.6-1.84,2-1.17,1.66,1.86-2,1.16ZM328.93,216l0,0-1.6-1.84,2-1.17,1.66,1.86L329,216Zm6.52.57,0,0-1.6-1.84,2-1.17,1.66,1.86-2,1.17Zm-12.87-2.16h0l-1.6-1.84,2-1.17,1.66,1.86-2,1.16Zm22,1.21a.06.06,0,0,1,0,0L343,213.71l2-1.17,1.67,1.86-2,1.17Zm-5.82-1s0,0,0,0l-1.6-1.84,2-1.17,1.67,1.86-2,1.17Zm-5.82-1h0l-1.6-1.85,2-1.17,1.67,1.86-2,1.17Zm-7.05-1.18a.06.06,0,0,1,0,0l-1.59-1.84,2-1.17,1.67,1.86-2,1.17Zm22,1.2h0l-4.1-4.73,2-1.17,4.17,4.74-2,1.17Zm-5.82-1,0,0-1.6-1.84,2-1.17,1.66,1.86-2,1.17Zm-5.82-1,0,0-1.61-1.84,2-1.17,1.66,1.86-2,1.17Zm-7-2.33,0,0-.7-.78,2-1.17.75.81-2,1.16Zm10.31.41h0l-1.6-1.85,2-1.17,1.66,1.86-2,1.17Zm-7-2.32,0,0-.69-.79,2-1.17.76.81-2,1.17Zm10.31.41,0,0-1.6-1.84,2-1.17,1.67,1.86-2,1.17Zm-7-2.33s0,0,0,0l-.7-.78,2-1.17.75.81-2,1.16Zm3.32-1.91,0,0-.7-.79,2-1.17.75.81-2,1.17Z" style="fill:#73ADFF"></path><path d="M283.61,259.43h0l-1.6-1.85,3.25-1.87,1.66,1.86-3.25,1.87Zm-2.51-2.88a.05.05,0,0,1,0,0l-1.6-1.84,2.56-1.47,1.66,1.86-2.55,1.47Zm7,.26h0L286.51,255l2.55-1.47,1.66,1.86-2.55,1.47Zm-9.55-3.15h0l-1.6-1.84,4.12-2.38,1.67,1.86-4.12,2.38Zm6.35.67a.06.06,0,0,1-.05,0l-1.6-1.84,2-1.17,1.67,1.86-2,1.17Zm7,.27-.05,0-1.59-1.84,2.55-1.48,1.66,1.86L292,254.59Zm-3.73-2.18,0,0-1.6-1.84,2-1.17,1.66,1.86-2,1.17Zm-12.16-1.64s0,0,0,0l-1.6-1.84,3.25-1.87,1.66,1.86-3.24,1.87Zm19.73,1.6,0,0-1.6-1.84,18.43-10.65,1.67,1.87-18.44,10.64ZM284,250.54l0,0-1.6-1.84,2-1.17,1.66,1.86-2,1.17Zm7.57,0s0,0,0,0l-1.6-1.84,2-1.17,1.66,1.86-2,1.17Zm-18-2.6-.05,0L272,246l2-1.17,1.67,1.86-2,1.17Zm7,.26s0,0,0,0L279,246.3l2-1.17,1.66,1.86-2,1.17Zm6.69.47,0,0-1.6-1.84,2-1.17,1.66,1.86-2,1.17Zm7.57,0,0,0-1.6-1.84,2-1.17,1.67,1.86-2,1.17Zm-18-2.61h-.05l-1.6-1.85,2-1.17,1.66,1.86-2,1.17Zm7,.27,0,0-1.59-1.84,2-1.17,1.67,1.86-2,1.17Zm6.69.46s0,0,0,0l-1.6-1.84,2-1.17,1.67,1.86-2,1.17Zm-20.09-2.31,0,0-1.6-1.84,2.55-1.47,1.66,1.86-2.54,1.47Zm27.65,2.27,0,0-1.6-1.84,2-1.17,1.66,1.86-2,1.17Zm-18-2.6,0,0-1.6-1.84,2-1.17,1.66,1.86-2,1.17Zm7,.26s0,0,0,0l-1.6-1.84,2-1.17,1.66,1.86-2,1.17Zm6.69.47,0,0-1.6-1.84,2-1.17,1.66,1.86-2,1.17Zm7.57,0,0,0-1.6-1.84,2-1.17,1.66,1.86-2,1.17Zm-25.69-3.41,0,0-1.6-1.84,2-1.17,1.66,1.86-2,1.17Zm7.71.8h-.05l-1.59-1.85,2-1.17L285.6,241l-2,1.16Zm7,.27,0,0-1.6-1.84,2-1.17,1.66,1.86-2,1.17Zm6.69.46,0,0-1.6-1.84,2-1.17,1.66,1.86-2,1.17Zm7.57,0h-.05L303.2,241l2-1.17,1.67,1.87-2,1.16Zm-25.69-3.41h0l-1.6-1.85,2-1.17,1.66,1.86-2,1.17Zm7.7.81a.05.05,0,0,1,0,0l-1.6-1.84,2-1.17,1.66,1.86-2,1.17Zm7.05.26a.06.06,0,0,1-.05,0l-1.59-1.84,2-1.17,1.67,1.86-2,1.17Zm6.69.47,0,0-1.6-1.84,2-1.17,1.67,1.86-2,1.17Zm7.56,0,0,0-1.6-1.84,2-1.17,1.66,1.86-2,1.17Zm-25.68-3.41a.06.06,0,0,1-.05,0l-1.59-1.84,2-1.17,1.67,1.86-2,1.17Zm7.7.8h0l-1.6-1.85,2-1.17,1.66,1.87-2,1.16ZM315.55,241s0,0,0,0l-1.6-1.84,2.55-1.47,1.67,1.86L315.58,241Zm-18.33-2.4,0,0-1.6-1.84,2-1.17,1.66,1.86-2,1.17Zm6.69.46h0l-1.6-1.85,2-1.17,1.66,1.86-2,1.17Zm7.57,0h0l-1.6-1.85,2-1.17,1.66,1.87-2,1.16Zm-25.69-3.41h0l-1.6-1.85,2-1.17,1.66,1.86-2,1.17Zm7.71.81-.05,0-1.59-1.84,2-1.17,1.67,1.86-2,1.17Zm7,.26s0,0,0,0l-1.6-1.84,2-1.17,1.66,1.86-2,1.17Zm18.85,2.1s0,0,0,0l-1.6-1.84,2.55-1.47L322,237.3l-2.55,1.47Zm-12.16-1.63,0,0-1.6-1.84,2-1.17,1.66,1.86-2,1.17Zm7.57,0s0,0-.05,0l-1.6-1.84,2-1.17,1.66,1.86-2,1.17Zm-18-2.61h0l-1.6-1.85,2-1.17,1.66,1.87-2,1.16Zm7.05.27-.05,0-1.6-1.84,2-1.17,1.66,1.86-2,1.17Zm6.69.46h0l-1.6-1.85,2-1.17,1.67,1.86-2,1.17Zm-20-2.37h0l-1.6-1.84,2-1.17,1.66,1.86-2,1.17Zm32.68,3.7h0l-1.6-1.84,2.55-1.48,1.67,1.86-2.55,1.48Zm-5.12-1.37h0l-1.6-1.85,2-1.17,1.66,1.87-2,1.16Zm-18-2.6,0,0-1.6-1.84,2-1.17,1.66,1.86-2,1.17Zm7,.26h0l-1.6-1.85,2-1.17,1.66,1.86-2,1.17Zm6.69.47,0,0-1.6-1.84,2-1.17,1.66,1.86-2,1.17Zm-20-2.37s0,0,0,0l-1.6-1.84,2-1.17,1.66,1.86-2,1.17Zm33.2,3.4,0,0-1.6-1.84,3.25-1.88,1.66,1.86-3.24,1.88Zm-5.64-1.07,0,0-1.6-1.84,6.39-3.69,1.66,1.86-6.39,3.69Zm-18-2.61h-.05l-1.59-1.85,2-1.16,1.67,1.86-2,1.16Zm7,.27,0,0-1.6-1.84,2-1.17,1.66,1.86-2,1.17Zm6.69.46h0l-1.6-1.85,2-1.17,1.66,1.86-2,1.17Zm-20-2.36,0,0-1.6-1.84,2-1.17,1.67,1.86-2,1.17Zm9.57-.28,0,0-1.6-1.84,2-1.17,1.66,1.86-2,1.17Zm25.55,2.56h0l-1.6-1.85,2-1.16,1.66,1.86-2,1.16Zm-18.5-2.3h-.05l-1.6-1.85,2-1.17,1.66,1.86-2,1.17Zm6.69.47,0,0-1.6-1.84,1.85-1.07a.61.61,0,0,0,.27-.37.51.51,0,0,0-.08-.44l-2.1-2.42,2.37-1.37,4.17,4.74-4.82,2.79Zm-20-2.37,0,0-1.6-1.84,2-1.17,1.66,1.86-2,1.17Zm9.58-.28h0l-1.6-1.84,2-1.17,1.66,1.86-2,1.16Zm25.55,2.57a.06.06,0,0,1-.05,0L334,227.54l2-1.17,1.67,1.86-2,1.17Zm-18.51-2.3,0,0-1.6-1.84,2-1.17,1.66,1.86-2,1.17Zm-11.86-2.74h0l-1.6-1.85,2-1.17,1.66,1.86-2,1.17Zm8.14.56a.06.06,0,0,1,0,0l-1.59-1.84,2-1.17,1.67,1.86-2,1.17Zm25.54,2.56h0l-1.6-1.84,2-1.17,1.66,1.86-2,1.16Zm-5.82-1,0,0-1.6-1.84,2-1.17,1.66,1.86-2,1.17Zm-24.54-4.07,0,0-1.6-1.84,2-1.17,1.66,1.86-2,1.17Zm8.13.55h0l-1.6-1.84,3.6-2.08,1.67,1.86-3.6,2.07ZM343,225.17l0,0-1.6-1.84,5.34-3.09,1.67,1.86L343,225.17Zm-18.16-2.51h0l-1.6-1.85,2-1.17,1.66,1.86-2,1.17Zm-12.9-2.13h0l-1.59-1.85,2-1.17,1.67,1.86-2,1.17Zm28.56,1.75h0l-1.59-1.85,2-1.17,1.67,1.86-2,1.17Zm-12.34-1.53s0,0,0,0l-1.6-1.84,2-1.17,1.66,1.86-2,1.17Zm-5.82-1s0,0,0,0l-1.6-1.84,2-1.17,1.66,1.86-2,1.17Zm-7.09-1.16,0,0-1.6-1.84,2-1.17,1.66,1.86-2,1.17Zm34.38,2.72,0,0-1.6-1.84,2-1.17,1.66,1.86-2,1.17Zm-5.82-1s0,0,0,0l-1.6-1.84,2-1.17,1.66,1.86-2,1.17Zm-12.33-1.54h-.05L329.8,217l2-1.17,1.67,1.87-2,1.16Zm6.51.57a.05.05,0,0,1,0,0l-1.6-1.84,2-1.17,1.66,1.86-2,1.17Zm-12.33-1.54h-.05L324,216l2-1.17,1.67,1.86-2,1.16Zm-6.36-1.58s0,0,0,0l-1.6-1.84,2-1.17,1.66,1.86-2,1.17Zm33.65,3.14a.06.06,0,0,1-.05,0l-4.1-4.72,2-1.17,4.17,4.74-2,1.17Zm-5.82-1h0l-1.6-1.85,2-1.17,1.66,1.86-2,1.17Zm-5.82-1h0l-1.6-1.84,2-1.17,1.66,1.86-2,1.16ZM328.93,216l0,0-1.6-1.84,2-1.17,1.66,1.86L329,216Zm6.52.57,0,0-1.6-1.84,2-1.17,1.66,1.86-2,1.17Zm-12.87-2.16h0l-1.6-1.84,2-1.17,1.66,1.86-2,1.16Zm22,1.21a.06.06,0,0,1,0,0L343,213.71l2-1.17,1.67,1.86-2,1.17Zm-5.82-1s0,0,0,0l-1.6-1.84,2-1.17,1.67,1.86-2,1.17Zm-5.82-1h0l-1.6-1.85,2-1.17,1.67,1.86-2,1.17Zm-7.05-1.18a.06.06,0,0,1,0,0l-1.59-1.84,2-1.17,1.67,1.86-2,1.17Zm22,1.2h0l-4.1-4.73,2-1.17,4.17,4.74-2,1.17Zm-5.82-1,0,0-1.6-1.84,2-1.17,1.66,1.86-2,1.17Zm-5.82-1,0,0-1.61-1.84,2-1.17,1.66,1.86-2,1.17Zm-7-2.33,0,0-.7-.78,2-1.17.75.81-2,1.16Zm10.31.41h0l-1.6-1.85,2-1.17,1.66,1.86-2,1.17Zm-7-2.32,0,0-.69-.79,2-1.17.76.81-2,1.17Zm10.31.41,0,0-1.6-1.84,2-1.17,1.67,1.86-2,1.17Zm-7-2.33s0,0,0,0l-.7-.78,2-1.17.75.81-2,1.16Zm3.32-1.91,0,0-.7-.79,2-1.17.75.81-2,1.17Z" style="fill:#fff;opacity:0.25"></path></g><g id="freepik--Pipe--inject-79"><g id="freepik--pipe--inject-79"><path d="M245.24,374.29a16.07,16.07,0,0,1-8-2.41c-9.25-5.33-16.49-17.87-16.49-28.55,0-5.55,2-9.75,5.59-11.83s8.24-1.7,13,1.08c9.25,5.33,16.49,17.87,16.49,28.55,0,5.55-2,9.75-5.59,11.83A10,10,0,0,1,245.24,374.29Zm-13.76-39.82a5.87,5.87,0,0,0-2.95.74c-2.22,1.29-3.44,4.17-3.44,8.12,0,9.13,6.43,20.27,14.33,24.84,3.43,2,6.54,2.36,8.75,1.08s3.44-4.17,3.44-8.12c0-9.13-6.43-20.27-14.33-24.84A11.94,11.94,0,0,0,231.48,334.47Z" style="fill:#263238"></path><path d="M251.59,355.6a33.49,33.49,0,0,0-9.53-16.52c-6.2-5.87-12.11-7.17-16-4.94l-37.3,21.53a2.37,2.37,0,0,1-3.56-2.05V294.8H141.67v80.48a33.47,33.47,0,0,0,50.15,29l56.06-32.36h0C251.75,369.66,253.57,363.89,251.59,355.6Z" style="fill:#455a64"></path><path d="M149.82,374.89V294.8h-8.15v80.48a33.47,33.47,0,0,0,50.15,29l56.06-32.36h0c3.26-1.88,5.06-6.28,4.36-12.58l-64.7,37.35A25.14,25.14,0,0,1,149.82,374.89Z" style="fill:#37474f"></path><g style="opacity:0.1"><path d="M226.09,334.14l-37.3,21.53a2.37,2.37,0,0,1-3.56-2.05v4a8.8,8.8,0,0,0,13.2,7.62l44.22-25.53c-.2-.2-.39-.41-.59-.6C235.86,333.21,230,331.91,226.09,334.14Z" style="fill:#fff"></path></g><path d="M141.66,342.13c0,3.21,2.14,6.42,6.38,8.86,8.51,4.92,22.31,4.92,30.82,0,4.26-2.46,6.39-5.68,6.39-8.9v1.46c0,3.22-2.13,6.44-6.39,8.9-8.51,4.91-22.31,4.91-30.82,0-4.24-2.45-6.37-5.66-6.38-8.87Z" style="fill:#263238"></path><path d="M210.84,393.28c2.77-1.62,4.49-5.07,4.49-10,0-9.82-6.9-21.78-15.41-26.69-4.26-2.46-8.11-2.69-10.9-1.08l1.27-.73c2.79-1.61,6.64-1.38,10.89,1.08,8.51,4.91,15.41,16.86,15.41,26.69,0,4.9-1.71,8.35-4.48,10Z" style="fill:#263238"></path><path d="M147.36,316.19a1.31,1.31,0,1,0,1.31,1.31A1.31,1.31,0,0,0,147.36,316.19Zm9.32,3.48A1.31,1.31,0,1,0,158,321,1.31,1.31,0,0,0,156.68,319.67Zm22.87-3.48a1.31,1.31,0,1,0,1.3,1.31A1.3,1.3,0,0,0,179.55,316.19Zm-9.32,3.48a1.31,1.31,0,1,0,1.3,1.31A1.31,1.31,0,0,0,170.23,319.67Z" style="fill:#263238"></path><path d="M147.36,358a1.31,1.31,0,1,0,1.31,1.31A1.31,1.31,0,0,0,147.36,358Zm9.32,3.49a1.31,1.31,0,1,0,1.31,1.31A1.31,1.31,0,0,0,156.68,361.53ZM179.55,358a1.31,1.31,0,1,0,1.3,1.31A1.31,1.31,0,0,0,179.55,358Zm-9.32,3.49a1.31,1.31,0,1,0,1.3,1.31A1.31,1.31,0,0,0,170.23,361.53Z" style="fill:#263238"></path><path d="M223,380.18a1.3,1.3,0,1,0,.48-1.78A1.31,1.31,0,0,0,223,380.18Zm-1.64-9.81a1.31,1.31,0,1,0,.48-1.79A1.31,1.31,0,0,0,221.34,370.37Zm-14.45-18.06a1.31,1.31,0,1,0,.47-1.79A1.31,1.31,0,0,0,206.89,352.31Zm7.68,6.33a1.31,1.31,0,1,0,.47-1.79A1.31,1.31,0,0,0,214.57,358.64Z" style="fill:#263238"></path></g><g id="freepik--Funnel--inject-79"><path d="M197.58,288H129.33l14.09,19.36h0a14.81,14.81,0,0,0,4.6,3.93c8.51,4.91,22.31,4.91,30.82,0a15,15,0,0,0,4.61-3.93h0Z" style="fill:#263238"></path><ellipse cx="163.45" cy="279.7" rx="36.99" ry="21.35" style="fill:#455a64"></ellipse><path d="M183.63,297.6a14.65,14.65,0,0,0-4.77-4.14c-8.51-4.92-22.31-4.92-30.82,0a14.75,14.75,0,0,0-4.77,4.14A60.74,60.74,0,0,0,183.63,297.6Z" style="fill:#263238"></path><path d="M163.45,302.63c-9.76,0-19.52-2.14-27-6.43h0c-7.5-4.34-11.63-10.19-11.63-16.5s4.13-12.16,11.63-16.49c14.87-8.58,39-8.58,53.92,0,7.5,4.33,11.64,10.19,11.64,16.49s-4.14,12.16-11.64,16.5S173.22,302.63,163.45,302.63Zm-25.35-9.22c14,8.07,36.72,8.07,50.7,0,6.47-3.73,10-8.6,10-13.71s-3.56-10-10-13.7c-14-8.07-36.72-8.07-50.7,0-6.46,3.73-10,8.6-10,13.7s3.56,10,10,13.71Z" style="fill:#37474f"></path><path d="M153.11,289.28c-1.21-4.06-2.94-8-4.35-12s-2.53-8.1-4.08-12c-.17-.43-.59-.24-.53.18a68.36,68.36,0,0,0,3.25,12,78.75,78.75,0,0,0,5,12.3C152.75,290.34,153.26,289.8,153.11,289.28Z" style="fill:#37474f"></path><path d="M141.67,273.2a1.31,1.31,0,1,0,1.31,1.31A1.31,1.31,0,0,0,141.67,273.2Zm3.79,10.56a1.31,1.31,0,1,0,1.3,1.3A1.3,1.3,0,0,0,145.46,283.76Z" style="fill:#263238"></path></g></g><g id="freepik--Screen--inject-79"><path d="M199.58,244.74c-1.92-1.11-1.82-3-1.82-5.35V133.29a8.19,8.19,0,0,1,3.71-6.42L337,48.65a6.39,6.39,0,0,1,6.77.19c1.81,1.44,2.24,2.66,2.24,5V160a8.19,8.19,0,0,1-3.71,6.43L206.77,244.61A8,8,0,0,1,199.58,244.74Z" style="fill:#37474f"></path><path d="M346,53.86c0-2.36-1.66-3.32-3.71-2.14L206.77,129.94a7.41,7.41,0,0,0-2.62,2.78l-5.3-3.08h0a7.57,7.57,0,0,1,2.62-2.78L337,48.65c2.05-1.19,5-1.21,6.76.19S346,51.5,346,53.86Z" style="fill:#455a64"></path><path d="M206.33,244.83a8,8,0,0,1-6.75-.09c-1.92-1.11-1.81-3-1.81-5.35V133.29a7.53,7.53,0,0,1,1.08-3.65l5.3,3.06h0a7.61,7.61,0,0,0-1.09,3.65V242.47C203.06,244.66,204.49,245.65,206.33,244.83Z" style="fill:#263238"></path><path d="M208.77,134.22,339.14,59c1.23-.71,2.23-.14,2.23,1.28v98.68a4.93,4.93,0,0,1-2.23,3.85L208.77,238c-1.23.71-2.23.14-2.23-1.28V138.08A4.93,4.93,0,0,1,208.77,134.22Z"></path><path d="M208.77,134.22a4.93,4.93,0,0,0-2.23,3.86V235l128.89-74.39a4.92,4.92,0,0,0,2.22-3.86V59.83Z" style="fill:#263238"></path></g></g></g><g id="freepik--Charts--inject-79"><g id="freepik--chart--inject-79"><path d="M275.89,106.55a1.48,1.48,0,0,0-.65-1.4h0l-1.68-1h0a1.49,1.49,0,0,0-1.54.14L214.5,137.58a4.73,4.73,0,0,0-2.15,3.72v80.9a1.5,1.5,0,0,0,.64,1.39h0l1.72,1h0a1.53,1.53,0,0,0,1.52-.15l57.52-33.26a4.77,4.77,0,0,0,2.15-3.72Z" style="fill:#73ADFF;opacity:0.4"></path><path d="M275.89,106.55v80.9a4.72,4.72,0,0,1-2.14,3.72l-57.52,33.26c-1,.61-1.93.24-2.11-.81a1.85,1.85,0,0,0,.38-.18L272,190.18a4.73,4.73,0,0,0,2.14-3.71V105.56a2.81,2.81,0,0,0,0-.43C275.13,104.75,275.89,105.33,275.89,106.55Z" style="fill:#73ADFF;opacity:0.4"></path><path d="M273.75,105.31l-52.38,30.74-2.93,1.69-1.47.84c-.23.14-.51.29-.7.42a3.35,3.35,0,0,0-.58.49,4.45,4.45,0,0,0-1.23,2.77v3.38l0,13.51-.08,17.28c0,18-.16,28.74-.27,46.76-.11-18-.24-28.74-.28-46.76l-.08-17.28v-16.9a5.16,5.16,0,0,1,1.43-3.28,4.09,4.09,0,0,1,.7-.61c.28-.18.5-.29.75-.44l1.46-.85,2.93-1.69,11.69-6.78Z" style="fill:#fff"></path><g id="freepik--chart--inject-79"><path d="M242.16,133l0,31.23-19,30.26c-6.69-8.58-4.74-30,5.72-46.95C233.15,140.67,236.89,136.3,242.16,133Z" style="fill:#73ADFF"></path><path d="M242.16,133l0,31.23-19,30.26c-6.69-8.58-4.74-30,5.72-46.95C233.15,140.67,236.89,136.3,242.16,133Z" style="fill:#fff;opacity:0.2"></path><path d="M267.93,160.49c-3.76,19-16.85,36.61-29.74,39.76-5.19,1.29-9.39.24-12.82-3.14l19.09-30.88Z" style="fill:#73ADFF"></path><path d="M267.93,160.49c-3.76,19-16.85,36.61-29.74,39.76-5.19,1.29-9.39.24-12.82-3.14l19.09-30.88Z" style="fill:#fff;opacity:0.30000000000000004"></path><path d="M268.42,157.21,246,162.72l12.61-33.2C266.6,132.55,270.39,143.18,268.42,157.21Z" style="fill:#73ADFF"></path><path d="M256.19,129.29l-11.39,30V131.37C249,129.12,252.56,128.48,256.19,129.29Z" style="fill:#73ADFF"></path><path d="M256.19,129.29l-11.39,30V131.37C249,129.12,252.56,128.48,256.19,129.29Z" style="fill:#fff;opacity:0.5"></path></g></g><g id="freepik--chart--inject-79"><path d="M335,117.72a1.47,1.47,0,0,0-.65-1.39h0l-1.69-1h0a1.49,1.49,0,0,0-1.54.14l-48.79,28.2a4.73,4.73,0,0,0-2.15,3.72v35.26a1.53,1.53,0,0,0,.64,1.4h0l1.72,1h0a1.5,1.5,0,0,0,1.52-.15l48.8-28.2A4.75,4.75,0,0,0,335,153Z" style="fill:#73ADFF;opacity:0.4"></path><path d="M335,117.73V153a4.75,4.75,0,0,1-2.14,3.72l-48.8,28.2c-1,.61-1.93.24-2.11-.81a1.85,1.85,0,0,0,.38-.18l48.8-28.2A4.73,4.73,0,0,0,333.3,152V116.74a1.91,1.91,0,0,0,0-.43C334.27,115.93,335,116.51,335,117.73Z" style="fill:#73ADFF;opacity:0.4"></path><path d="M332.89,116.49l-43.66,25.68-2.93,1.69-1.47.84c-.23.14-.51.29-.7.42a3.35,3.35,0,0,0-.58.49,4.45,4.45,0,0,0-1.23,2.77s-.26,17.27-.37,35.29c-.12-18-.38-35.3-.38-35.3a5.16,5.16,0,0,1,1.43-3.28,4,4,0,0,1,.7-.6c.28-.19.5-.3.75-.45l1.46-.85,2.93-1.69,11.69-6.78Z" style="fill:#fff"></path><g id="freepik--chart--inject-79"><polygon points="314.24 133.07 309.43 135.85 309.43 161.38 314.24 158.6 314.24 133.07" style="fill:#73ADFF"></polygon><path d="M286,179.05c-.16.08-.28,0-.28-.27V148.34a.71.71,0,0,1,.28-.58c.15-.09.27,0,.27.26v30.44A.74.74,0,0,1,286,179.05Z" style="fill:#fafafa"></path><path d="M330.48,153.31l-45.82,26.47c-.16.09-.28,0-.28-.27a.71.71,0,0,1,.28-.58l45.82-26.47c.15-.09.27,0,.27.27A.73.73,0,0,1,330.48,153.31Z" style="fill:#fafafa"></path><polygon points="293.74 146.26 288.93 149.04 288.93 173.22 293.74 170.44 293.74 146.26" style="fill:#73ADFF"></polygon><polygon points="293.74 146.26 288.93 149.04 288.93 173.22 293.74 170.44 293.74 146.26" style="fill:#fff;opacity:0.2"></polygon><polygon points="327.91 134.07 323.1 136.85 323.1 153.49 327.91 150.71 327.91 134.07" style="fill:#73ADFF"></polygon><polygon points="300.57 159.09 295.76 161.87 295.76 169.27 300.57 166.5 300.57 159.09" style="fill:#73ADFF"></polygon><polygon points="307.41 151.25 302.6 154.03 302.6 165.33 307.41 162.55 307.41 151.25" style="fill:#73ADFF"></polygon><polygon points="307.41 151.25 302.6 154.03 302.6 165.33 307.41 162.55 307.41 151.25" style="fill:#fff;opacity:0.30000000000000004"></polygon><polygon points="321.07 143.66 316.26 146.43 316.26 157.44 321.07 154.66 321.07 143.66" style="fill:#73ADFF"></polygon><polygon points="321.07 143.66 316.26 146.43 316.26 157.44 321.07 154.66 321.07 143.66" style="fill:#fff;opacity:0.4"></polygon></g></g><g id="freepik--chart--inject-79"><path d="M335,72.44a1.48,1.48,0,0,0-.65-1.4h0l-1.69-1h0a1.49,1.49,0,0,0-1.54.14l-48.79,28.2a4.73,4.73,0,0,0-2.15,3.72v35.26a1.53,1.53,0,0,0,.64,1.4h0l1.72,1h0a1.48,1.48,0,0,0,1.52-.15l48.8-28.2A4.75,4.75,0,0,0,335,107.7Z" style="fill:#73ADFF;opacity:0.4"></path><path d="M335,72.44v35.27a4.75,4.75,0,0,1-2.14,3.71l-48.8,28.2c-1,.61-1.93.24-2.11-.81a2.48,2.48,0,0,0,.38-.17l48.8-28.21a4.73,4.73,0,0,0,2.14-3.71V71.45a1.91,1.91,0,0,0,0-.43C334.27,70.64,335,71.22,335,72.44Z" style="fill:#73ADFF;opacity:0.4"></path><path d="M332.89,71.2,289.23,96.88l-2.93,1.69-1.47.84c-.23.14-.51.29-.7.42a3.35,3.35,0,0,0-.58.49,4.45,4.45,0,0,0-1.23,2.77s-.26,17.27-.37,35.29c-.12-18-.38-35.29-.38-35.29A5.16,5.16,0,0,1,283,99.8a4,4,0,0,1,.7-.6c.28-.19.5-.3.75-.45l1.46-.85,2.93-1.69,11.69-6.78Z" style="fill:#fff"></path><path d="M286.63,124.8a.28.28,0,0,1-.24-.14.29.29,0,0,1,.1-.39l1.47-.84a.28.28,0,0,1,.39.1.29.29,0,0,1-.1.39l-1.48.84A.23.23,0,0,1,286.63,124.8Zm2.95-1.7a.29.29,0,0,1-.25-.14.27.27,0,0,1,.11-.38l1.47-.85a.27.27,0,0,1,.38.1.29.29,0,0,1-.1.39l-1.47.85Zm2.94-1.7a.3.3,0,0,1-.25-.14.28.28,0,0,1,.11-.38l1.47-.85a.29.29,0,0,1,.39.1.29.29,0,0,1-.11.39l-1.47.85A.32.32,0,0,1,292.52,121.4Zm2.94-1.69a.29.29,0,0,1-.14-.53l1.47-.85a.29.29,0,0,1,.39.1.28.28,0,0,1-.11.39l-1.47.85A.33.33,0,0,1,295.46,119.71Zm2.94-1.7a.28.28,0,0,1-.24-.14.29.29,0,0,1,.1-.39l1.48-.85a.28.28,0,0,1,.38.1.29.29,0,0,1-.1.39l-1.47.85A.42.42,0,0,1,298.4,118Zm3-1.7a.3.3,0,0,1-.25-.14.28.28,0,0,1,.11-.39l1.47-.85a.29.29,0,0,1,.39.1.29.29,0,0,1-.11.39l-1.47.85A.25.25,0,0,1,301.35,116.31Zm2.94-1.7a.27.27,0,0,1-.24-.14.28.28,0,0,1,.1-.39l1.47-.85a.29.29,0,0,1,.39.1.28.28,0,0,1-.11.39l-1.47.85A.23.23,0,0,1,304.29,114.61Zm2.94-1.7a.28.28,0,0,1-.24-.14.29.29,0,0,1,.1-.39l1.47-.85a.29.29,0,0,1,.39.11.28.28,0,0,1-.1.38l-1.47.85A.28.28,0,0,1,307.23,112.91Zm2.95-1.7a.29.29,0,0,1-.25-.14.29.29,0,0,1,.1-.39l1.48-.85a.28.28,0,0,1,.38.11.27.27,0,0,1-.1.38l-1.47.85A.27.27,0,0,1,310.18,111.21Zm2.94-1.7a.3.3,0,0,1-.25-.14A.29.29,0,0,1,313,109l1.47-.85a.28.28,0,0,1,.39.11.28.28,0,0,1-.11.38l-1.47.85A.23.23,0,0,1,313.12,109.51Zm2.94-1.7a.27.27,0,0,1-.24-.14.28.28,0,0,1,.1-.39l1.47-.85a.29.29,0,0,1,.29.5l-1.48.84A.23.23,0,0,1,316.06,107.81Zm2.95-1.7a.29.29,0,0,1-.25-.14.28.28,0,0,1,.1-.38l1.48-.85a.27.27,0,0,1,.38.1.29.29,0,0,1-.1.39l-1.47.85Zm2.94-1.7a.3.3,0,0,1-.25-.14.28.28,0,0,1,.11-.38l1.47-.85a.28.28,0,0,1,.38.1.28.28,0,0,1-.1.39l-1.47.85A.32.32,0,0,1,322,104.41Zm2.94-1.69a.28.28,0,0,1-.24-.15.27.27,0,0,1,.1-.38l1.47-.85a.28.28,0,0,1,.39.1.28.28,0,0,1-.11.39l-1.47.85A.33.33,0,0,1,324.89,102.72Zm2.94-1.7a.27.27,0,0,1-.24-.15.28.28,0,0,1,.1-.38l.54-.31a.29.29,0,0,1,.39.1.28.28,0,0,1-.11.39L328,101A.42.42,0,0,1,327.83,101Z" style="fill:#fafafa"></path><path d="M286.63,118.36a.28.28,0,0,1-.24-.14.29.29,0,0,1,.1-.39L288,117a.29.29,0,0,1,.39.11.28.28,0,0,1-.1.38l-1.48.85A.23.23,0,0,1,286.63,118.36Zm2.95-1.7a.28.28,0,0,1-.14-.53l1.47-.85a.28.28,0,0,1,.38.11.28.28,0,0,1-.1.38l-1.47.85A.27.27,0,0,1,289.58,116.66Zm2.94-1.7a.3.3,0,0,1-.25-.14.29.29,0,0,1,.11-.39l1.47-.85a.29.29,0,0,1,.39.11.28.28,0,0,1-.11.38l-1.47.85A.23.23,0,0,1,292.52,115Zm2.94-1.7a.27.27,0,0,1-.24-.14.29.29,0,0,1,.1-.39l1.47-.84a.27.27,0,0,1,.39.1.29.29,0,0,1-.11.39l-1.47.84A.23.23,0,0,1,295.46,113.26Zm2.94-1.7a.28.28,0,0,1-.24-.14.28.28,0,0,1,.1-.38l1.48-.85a.27.27,0,0,1,.38.1.29.29,0,0,1-.1.39l-1.47.85A.4.4,0,0,1,298.4,111.56Zm3-1.7a.3.3,0,0,1-.25-.14.27.27,0,0,1,.11-.38l1.47-.85a.29.29,0,0,1,.39.1.29.29,0,0,1-.11.39l-1.47.85A.35.35,0,0,1,301.35,109.86Zm2.94-1.69a.28.28,0,0,1-.24-.15.27.27,0,0,1,.1-.38l1.47-.85a.29.29,0,0,1,.39.1.28.28,0,0,1-.11.39l-1.47.85A.33.33,0,0,1,304.29,108.17Zm2.94-1.7a.27.27,0,0,1-.24-.15.28.28,0,0,1,.1-.38l1.47-.85a.28.28,0,0,1,.29.49l-1.47.85A.42.42,0,0,1,307.23,106.47Zm2.95-1.7a.29.29,0,0,1-.25-.14.29.29,0,0,1,.1-.39l1.48-.85a.28.28,0,0,1,.38.1.28.28,0,0,1-.1.39l-1.47.85A.43.43,0,0,1,310.18,104.77Zm2.94-1.7a.3.3,0,0,1-.25-.14.29.29,0,0,1,.11-.39l1.47-.85a.29.29,0,0,1,.39.1.29.29,0,0,1-.11.39l-1.47.85A.23.23,0,0,1,313.12,103.07Zm2.94-1.7a.27.27,0,0,1-.24-.14.28.28,0,0,1,.1-.39l1.47-.85a.3.3,0,0,1,.39.1.29.29,0,0,1-.1.39l-1.48.85A.23.23,0,0,1,316.06,101.37Zm2.95-1.7a.29.29,0,0,1-.25-.14.29.29,0,0,1,.1-.39l1.48-.85a.28.28,0,0,1,.38.11.28.28,0,0,1-.1.38l-1.47.85A.27.27,0,0,1,319,99.67ZM322,98a.3.3,0,0,1-.25-.14.29.29,0,0,1,.11-.39l1.47-.85a.28.28,0,0,1,.38.11.27.27,0,0,1-.1.38l-1.47.85A.23.23,0,0,1,322,98Zm2.94-1.7a.27.27,0,0,1-.24-.14.28.28,0,0,1,.1-.39l1.47-.85a.29.29,0,0,1,.39.11.27.27,0,0,1-.11.38l-1.47.85A.23.23,0,0,1,324.89,96.27Zm2.94-1.7a.28.28,0,0,1-.24-.14.29.29,0,0,1,.1-.39l.54-.31a.29.29,0,0,1,.39.11.27.27,0,0,1-.11.38l-.53.31A.28.28,0,0,1,327.83,94.57Z" style="fill:#fafafa"></path><path d="M286.63,111.92a.27.27,0,0,1-.24-.15.28.28,0,0,1,.1-.38l1.47-.85a.28.28,0,1,1,.29.49l-1.48.85A.33.33,0,0,1,286.63,111.92Zm2.95-1.7a.28.28,0,0,1-.14-.53l1.47-.85a.28.28,0,0,1,.38.1.29.29,0,0,1-.1.39l-1.47.85A.43.43,0,0,1,289.58,110.22Zm2.94-1.7a.3.3,0,0,1-.25-.14.29.29,0,0,1,.11-.39l1.47-.85a.29.29,0,0,1,.39.1.29.29,0,0,1-.11.39l-1.47.85A.23.23,0,0,1,292.52,108.52Zm2.94-1.7a.27.27,0,0,1-.24-.14.29.29,0,0,1,.1-.39l1.47-.85a.29.29,0,0,1,.39.1.28.28,0,0,1-.11.39l-1.47.85A.23.23,0,0,1,295.46,106.82Zm2.94-1.7a.28.28,0,0,1-.24-.14.29.29,0,0,1,.1-.39l1.48-.85a.27.27,0,0,1,.38.11.28.28,0,0,1-.1.38l-1.47.85A.28.28,0,0,1,298.4,105.12Zm3-1.7a.3.3,0,0,1-.25-.14.28.28,0,0,1,.11-.39l1.47-.85a.28.28,0,0,1,.38.11.27.27,0,0,1-.1.38l-1.47.85A.25.25,0,0,1,301.35,103.42Zm2.94-1.7a.27.27,0,0,1-.24-.14.28.28,0,0,1,.1-.39l1.47-.85a.29.29,0,0,1,.39.11.27.27,0,0,1-.11.38l-1.47.85A.23.23,0,0,1,304.29,101.72Zm2.94-1.7a.28.28,0,0,1-.24-.14.29.29,0,0,1,.1-.39l1.47-.85a.29.29,0,0,1,.29.5l-1.47.84A.28.28,0,0,1,307.23,100Zm2.95-1.7a.29.29,0,0,1-.25-.14.28.28,0,0,1,.1-.38l1.48-.85a.27.27,0,0,1,.38.1.28.28,0,0,1-.1.39l-1.47.85Zm2.94-1.7a.3.3,0,0,1-.25-.14.28.28,0,0,1,.11-.38l1.47-.85a.29.29,0,0,1,.39.1.29.29,0,0,1-.11.39l-1.47.85A.32.32,0,0,1,313.12,96.62Zm2.94-1.69a.28.28,0,0,1-.24-.15.27.27,0,0,1,.1-.38l1.47-.85a.28.28,0,0,1,.29.49l-1.48.85A.33.33,0,0,1,316.06,94.93Zm2.95-1.7a.27.27,0,0,1-.25-.15.28.28,0,0,1,.1-.38l1.47-.85a.28.28,0,1,1,.29.49l-1.47.85A.43.43,0,0,1,319,93.23Zm2.94-1.7a.3.3,0,0,1-.25-.14.28.28,0,0,1,.11-.39l1.47-.85a.28.28,0,0,1,.38.1.28.28,0,0,1-.1.39l-1.47.85A.37.37,0,0,1,322,91.53Zm2.94-1.7a.27.27,0,0,1-.24-.14.28.28,0,0,1,.1-.39l1.47-.85a.29.29,0,0,1,.39.1.28.28,0,0,1-.11.39l-1.47.85A.23.23,0,0,1,324.89,89.83Zm2.94-1.7a.28.28,0,0,1-.24-.14.29.29,0,0,1,.1-.39l.54-.31a.29.29,0,0,1,.39.1.28.28,0,0,1-.11.39l-.53.31A.28.28,0,0,1,327.83,88.13Z" style="fill:#fafafa"></path><path d="M286.63,105.47a.28.28,0,0,1-.24-.14.29.29,0,0,1,.1-.39l1.47-.85a.29.29,0,0,1,.29.5l-1.48.84A.23.23,0,0,1,286.63,105.47Zm2.95-1.7a.29.29,0,0,1-.25-.14.27.27,0,0,1,.11-.38l1.47-.85a.27.27,0,0,1,.38.1.29.29,0,0,1-.1.39l-1.47.85Zm2.94-1.7a.3.3,0,0,1-.25-.14.28.28,0,0,1,.11-.38l1.47-.85a.29.29,0,0,1,.39.1.29.29,0,0,1-.11.39l-1.47.85A.32.32,0,0,1,292.52,102.07Zm2.94-1.69a.29.29,0,0,1-.14-.53l1.47-.85a.29.29,0,0,1,.39.1.28.28,0,0,1-.11.39l-1.47.85A.33.33,0,0,1,295.46,100.38Zm2.94-1.7a.27.27,0,0,1-.24-.15.28.28,0,0,1,.1-.38l1.48-.85a.28.28,0,0,1,.38.1.29.29,0,0,1-.1.39l-1.47.85A.42.42,0,0,1,298.4,98.68Zm3-1.7a.3.3,0,0,1-.25-.14.28.28,0,0,1,.11-.39l1.47-.85a.27.27,0,0,1,.38.1.28.28,0,0,1-.1.39l-1.47.85A.25.25,0,0,1,301.35,97Zm2.94-1.7a.27.27,0,0,1-.24-.14.28.28,0,0,1,.1-.39l1.47-.85a.29.29,0,0,1,.39.1.28.28,0,0,1-.11.39l-1.47.85A.23.23,0,0,1,304.29,95.28Zm2.94-1.7a.28.28,0,0,1-.24-.14.29.29,0,0,1,.1-.39l1.47-.85a.28.28,0,0,1,.29.49l-1.47.85A.28.28,0,0,1,307.23,93.58Zm2.95-1.7a.29.29,0,0,1-.25-.14.29.29,0,0,1,.1-.39l1.48-.85a.28.28,0,0,1,.38.11.27.27,0,0,1-.1.38l-1.47.85A.27.27,0,0,1,310.18,91.88Zm2.94-1.7a.3.3,0,0,1-.25-.14.29.29,0,0,1,.11-.39l1.47-.85a.29.29,0,0,1,.39.11.28.28,0,0,1-.11.38l-1.47.85A.23.23,0,0,1,313.12,90.18Zm2.94-1.7a.27.27,0,0,1-.24-.14.28.28,0,0,1,.1-.39l1.47-.85a.29.29,0,0,1,.39.11.28.28,0,0,1-.1.38l-1.48.85A.23.23,0,0,1,316.06,88.48Zm2.95-1.7a.29.29,0,0,1-.25-.14.29.29,0,0,1,.1-.39l1.47-.85a.29.29,0,0,1,.39.11.28.28,0,0,1-.1.38l-1.47.85A.27.27,0,0,1,319,86.78Zm2.94-1.7a.3.3,0,0,1-.25-.14.29.29,0,0,1,.11-.39l1.47-.84a.27.27,0,0,1,.38.1.28.28,0,0,1-.1.39l-1.47.85A.35.35,0,0,1,322,85.08Zm2.94-1.7a.28.28,0,0,1-.14-.52l1.47-.85a.29.29,0,0,1,.39.1.28.28,0,0,1-.11.39l-1.47.85A.32.32,0,0,1,324.89,83.38Zm2.94-1.69a.27.27,0,0,1-.24-.15.28.28,0,0,1,.1-.38l.54-.31a.28.28,0,0,1,.39.1.28.28,0,0,1-.11.39l-.53.31A.42.42,0,0,1,327.83,81.69Z" style="fill:#fafafa"></path><path d="M286.63,121.38a.25.25,0,0,1-.14,0,.29.29,0,0,1-.11-.4l4.86-8.8c1.81-3.29,4.6-5.48,7-5.48h.32c2.29,0,5.05-2.34,6.73-5.72l2.07-4.17c2.23-4.47,6.06-7,8.72-5.74l1.78.84c1.68.79,4.08-.26,6.11-2.67a15.94,15.94,0,0,0,1.58-2.51c.9-1.61,1.75-3.13,2.83-3.25a.3.3,0,0,1,.33.26.29.29,0,0,1-.27.32c-.78.09-1.59,1.55-2.37,3a17.34,17.34,0,0,1-1.65,2.6c-2.21,2.62-4.88,3.73-6.81,2.82l-1.79-.84c-2.32-1.09-5.88,1.36-7.93,5.47l-2.07,4.17c-1.78,3.58-4.76,6.05-7.27,6.05h-.32c-2.15,0-4.72,2.07-6.44,5.17l-4.86,8.81A.3.3,0,0,1,286.63,121.38Z" style="fill:#73ADFF"></path><g style="opacity:0.4"><path d="M286.63,121.38a.25.25,0,0,1-.14,0,.29.29,0,0,1-.11-.4l4.86-8.8c1.81-3.29,4.6-5.48,7-5.48h.32c2.29,0,5.05-2.34,6.73-5.72l2.07-4.17c2.23-4.47,6.06-7,8.72-5.74l1.78.84c1.68.79,4.08-.26,6.11-2.67a17.2,17.2,0,0,0,1.56-2.44c.92-1.62,1.79-3.15,2.84-3.32a.29.29,0,0,1,.09.58c-.77.12-1.65,1.67-2.42,3a17.85,17.85,0,0,1-1.62,2.53c-2.21,2.62-4.88,3.73-6.81,2.82l-1.79-.84c-2.32-1.09-5.88,1.36-7.93,5.47l-2.07,4.17c-1.78,3.58-4.76,6.05-7.27,6.05h-.32c-2.15,0-4.72,2.07-6.44,5.17l-4.86,8.81A.3.3,0,0,1,286.63,121.38Z" style="fill:#fff"></path></g><path d="M293.64,109.06a1.93,1.93,0,0,1,.84-1.53c.47-.27.85,0,.85.56a1.92,1.92,0,0,1-.85,1.52C294,109.88,293.64,109.63,293.64,109.06Z" style="fill:#73ADFF"></path><path d="M310.58,92.64a1.92,1.92,0,0,1,.85-1.52c.46-.27.84,0,.84.55a1.92,1.92,0,0,1-.84,1.52C311,93.46,310.58,93.22,310.58,92.64Z" style="fill:#73ADFF"></path><path d="M327.53,84.23a1.94,1.94,0,0,1,.84-1.53c.47-.27.85,0,.85.55a1.92,1.92,0,0,1-.85,1.53C327.91,85.05,327.53,84.8,327.53,84.23Z" style="fill:#73ADFF"></path><path d="M293,127.69l-4.5,2.6c-.41.23-.74.07-.74-.37v-.61a1.59,1.59,0,0,1,.74-1.22l4.5-2.59c.41-.24.74-.07.74.36v.61A1.58,1.58,0,0,1,293,127.69Z" style="fill:#fafafa"></path><path d="M310,117.87l-4.5,2.6c-.41.24-.74.07-.74-.36v-.61a1.58,1.58,0,0,1,.74-1.22l4.5-2.6c.41-.23.74-.07.74.37v.6A1.56,1.56,0,0,1,310,117.87Z" style="fill:#fafafa"></path><path d="M327,108.06l-4.5,2.59c-.41.24-.74.08-.74-.36v-.61a1.59,1.59,0,0,1,.74-1.22l4.5-2.59c.41-.24.74-.08.74.36v.61A1.58,1.58,0,0,1,327,108.06Z" style="fill:#fafafa"></path></g></g><g id="freepik--speech-bubble--inject-79"><g id="freepik--speech-bubble--inject-79"><g id="freepik--speech-bubble--inject-79"><path d="M401.71,225.49c-.69,0-1.1-.58-1.1-1.55V183.76a5.22,5.22,0,0,1,.74-2.49,5.14,5.14,0,0,1,1.77-1.89l53.67-31a2.14,2.14,0,0,1,1-.32,1,1,0,0,1,1,.87,3.22,3.22,0,0,1,.08.67V189.8c0,1.69,0,2.91-2.26,4.19l-22.33,12.94-4.17,12a.16.16,0,0,1-.17.12h0a.16.16,0,0,1-.16-.09l-4.09-7.08-23,13.26a2.65,2.65,0,0,1-.41.21A1.94,1.94,0,0,1,401.71,225.49Z" style="fill:#fafafa"></path><path d="M457.82,148.47c.13,0,.47,0,.62.57a2.38,2.38,0,0,1,.08.58V189.8c0,1.67,0,2.68-2.08,3.85l-22.19,12.86-.26.15-.1.28-4,11.44L426.27,212l-.4-.68-.68.39-22.66,13.08a1.91,1.91,0,0,1-.32.16l-.09,0a1.31,1.31,0,0,1-.41.07c-.61,0-.71-.72-.71-1.15V183.76a4.78,4.78,0,0,1,.71-2.3,4.58,4.58,0,0,1,1.61-1.73l53.67-31a1.82,1.82,0,0,1,.83-.27m0-.79a2.5,2.5,0,0,0-1.22.37l-53.68,31a5.43,5.43,0,0,0-1.91,2,5.61,5.61,0,0,0-.8,2.69v40.18c0,1.24.61,1.95,1.5,1.95a2,2,0,0,0,.66-.12l.09,0a2.65,2.65,0,0,0,.48-.23l22.64-13.07,3.9,6.74a.55.55,0,0,0,.5.29.57.57,0,0,0,.55-.39l4.11-11.88,22.2-12.86c2.45-1.39,2.47-2.79,2.47-4.54V149.62a3.58,3.58,0,0,0-.09-.77,1.42,1.42,0,0,0-1.4-1.17Z" style="fill:#73ADFF"></path></g><path d="M413.51,187.57a5,5,0,0,1,2.28-.78,2.15,2.15,0,0,1,1.62.58,4,4,0,0,1,1,1.8,12.56,12.56,0,0,1,.42,2.88c0,1.32,0,2.66,0,4a19.79,19.79,0,0,1-.42,3.35,13.81,13.81,0,0,1-1,2.95,10.62,10.62,0,0,1-1.59,2.43,8.94,8.94,0,0,1-2.23,1.82l-4.47,2.58a.26.26,0,0,1-.34,0,.61.61,0,0,1-.14-.44V191.11a1.46,1.46,0,0,1,.14-.6.9.9,0,0,1,.34-.41Zm2.91,5.86a6.42,6.42,0,0,0-.22-1.5,2.14,2.14,0,0,0-.55-1,1.28,1.28,0,0,0-.91-.35,2.72,2.72,0,0,0-1.32.45l-2.37,1.37V204.7l2.46-1.42a4.58,4.58,0,0,0,1.26-1.05,6,6,0,0,0,.89-1.37,7,7,0,0,0,.54-1.62,10.45,10.45,0,0,0,.22-1.77C416.47,196.1,416.47,194.75,416.42,193.43Z" style="fill:#73ADFF"></path><path d="M426.71,180c.19-.11.33-.11.43,0a1.49,1.49,0,0,1,.25.55l4.34,14.75a.9.9,0,0,1,0,.18,1.46,1.46,0,0,1-.14.6.93.93,0,0,1-.34.42l-1.28.73c-.23.14-.4.16-.49.06a.79.79,0,0,1-.2-.34l-.76-2.59-5.61,3.24-.76,3.47a2.85,2.85,0,0,1-.19.56,1.24,1.24,0,0,1-.5.52l-1.28.74a.26.26,0,0,1-.34,0,.58.58,0,0,1-.14-.43,1.23,1.23,0,0,1,0-.2l4.35-19.78a4.37,4.37,0,0,1,.24-.84,1.09,1.09,0,0,1,.43-.47Zm1,11.43-1.95-6.66-2,8.91Z" style="fill:#73ADFF"></path><path d="M440.37,172.06a.27.27,0,0,1,.34,0,.58.58,0,0,1,.14.43v1.94a1.54,1.54,0,0,1-.14.61,1,1,0,0,1-.34.41l-3.19,1.84v15a1.46,1.46,0,0,1-.14.6.9.9,0,0,1-.34.41l-1.44.83a.24.24,0,0,1-.33,0,.57.57,0,0,1-.15-.44v-15l-3.19,1.85a.27.27,0,0,1-.34,0,.58.58,0,0,1-.14-.43v-1.94a1.46,1.46,0,0,1,.14-.6,1,1,0,0,1,.34-.42Z" style="fill:#73ADFF"></path><path d="M447.2,168.12c.19-.11.33-.11.43,0a1.35,1.35,0,0,1,.25.55l4.34,14.75a.9.9,0,0,1,0,.18,1.46,1.46,0,0,1-.14.6.93.93,0,0,1-.34.42l-1.28.73c-.23.14-.4.16-.49.06a.79.79,0,0,1-.2-.34l-.76-2.59-5.61,3.24-.76,3.47a2.85,2.85,0,0,1-.19.56,1.24,1.24,0,0,1-.5.52l-1.28.74a.26.26,0,0,1-.34,0,.58.58,0,0,1-.14-.43,1.23,1.23,0,0,1,0-.2l4.35-19.78a4.37,4.37,0,0,1,.24-.84,1.09,1.09,0,0,1,.43-.47Zm1,11.43-1.95-6.66-2,8.91Z" style="fill:#73ADFF"></path></g></g><g id="freepik--Character--inject-79"><g id="freepik--Ladder--inject-79"><path d="M66.31,294.5,88,353.94c1,1.93-2.27,3-3.7,2.16a3.53,3.53,0,0,1-1-1.1L62,296.78Z" style="fill:#37474f"></path><polygon points="95.59 375.7 128.47 356.63 127.44 352.09 94.56 371.15 95.59 375.7" style="fill:#37474f"></polygon><path d="M119,328l19.93,54.76c1,1.93-2.27,3-3.7,2.16a2.06,2.06,0,0,1-1-1.07v0l-19.42-53.15Z" style="fill:#37474f"></path><polygon points="43.94 345.74 75.03 327.71 73.48 323.48 42.91 341.19 43.94 345.74" style="fill:#263238"></polygon><path d="M34.15,381a3.42,3.42,0,0,1,.05-.43l16.87-79,6.71-3.87L39.92,381.21a1.37,1.37,0,0,1-.7.82,4.87,4.87,0,0,1-4.4,0,1.21,1.21,0,0,1-.68-.74A2.37,2.37,0,0,1,34.15,381Z" style="fill:#455a64"></path><path d="M88.84,372.91l18.53-10.7a2.44,2.44,0,0,0,1.11-1.91v-.44a2.46,2.46,0,0,0-1.11-1.92L52.75,326.26a2.46,2.46,0,0,0-2.21,0L32,337a2.45,2.45,0,0,0-1.11,1.92v.44A2.44,2.44,0,0,0,32,341.23l54.62,31.68A2.4,2.4,0,0,0,88.84,372.91Z" style="fill:#73ADFF"></path><path d="M31.22,337.79l56.52,32.77,20.41-11.79a2.32,2.32,0,0,0-.78-.83L52.75,326.26a2.46,2.46,0,0,0-2.21,0L32,337A2.18,2.18,0,0,0,31.22,337.79Z" style="fill:#fff;opacity:0.30000000000000004"></path><path d="M108.16,358.77a2.21,2.21,0,0,1,.32,1.09v.44a2.44,2.44,0,0,1-1.11,1.91l-18.53,10.7a2.19,2.19,0,0,1-1.1.27v-2.62Z" style="opacity:0.25"></path><path d="M87.74,370.56v2.62a2.25,2.25,0,0,1-1.11-.27L64.4,360.08,32,341.23a2.44,2.44,0,0,1-1.11-1.91v-.44a2.23,2.23,0,0,1,.33-1.09Z" style="opacity:0.15"></path><path d="M82.44,400.49,101,389.79a2.43,2.43,0,0,0,1.1-1.91v-.44a2.44,2.44,0,0,0-1.1-1.92L46.34,353.84a2.46,2.46,0,0,0-2.21,0L25.6,364.54a2.45,2.45,0,0,0-1.11,1.92v.44a2.44,2.44,0,0,0,1.11,1.91l54.62,31.68A2.48,2.48,0,0,0,82.44,400.49Z" style="fill:#73ADFF"></path><path d="M24.81,365.37l56.52,32.77,20.41-11.79a2.38,2.38,0,0,0-.77-.83L46.34,353.83a2.46,2.46,0,0,0-2.21,0L25.6,364.53A2.22,2.22,0,0,0,24.81,365.37Z" style="fill:#fff;opacity:0.30000000000000004"></path><path d="M101.75,386.35a2.21,2.21,0,0,1,.32,1.09v.44a2.43,2.43,0,0,1-1.1,1.91l-18.53,10.7a2.25,2.25,0,0,1-1.11.27v-2.62Z" style="opacity:0.25"></path><path d="M81.33,398.14v2.62a2.25,2.25,0,0,1-1.11-.27L58,387.66,25.6,368.81a2.44,2.44,0,0,1-1.11-1.91v-.44a2.23,2.23,0,0,1,.33-1.09Z" style="opacity:0.15"></path><path d="M96.57,344.13l30.79-17.78a2.44,2.44,0,0,0,1.11-1.91V324a2.44,2.44,0,0,0-1.11-1.91L72.74,290.4a2.46,2.46,0,0,0-2.21,0l-30.8,17.78a2.43,2.43,0,0,0-1.1,1.91v.44a2.45,2.45,0,0,0,1.1,1.92l54.63,31.68A2.46,2.46,0,0,0,96.57,344.13Z" style="fill:#73ADFF"></path><path d="M95.46,341.77v2.62a2.29,2.29,0,0,1-1.1-.26L72.13,331.29l-32.4-18.84a2.45,2.45,0,0,1-1.1-1.92v-.44A2.27,2.27,0,0,1,39,309Z" style="opacity:0.15"></path><path d="M128.14,322.91a2.22,2.22,0,0,1,.33,1.08v.45a2.44,2.44,0,0,1-1.11,1.91L96.57,344.13a2.36,2.36,0,0,1-1.11.26v-2.62Z" style="opacity:0.25"></path><path d="M39,309l56.52,32.77,32.67-18.86a2.32,2.32,0,0,0-.78-.83L72.73,290.4a2.46,2.46,0,0,0-2.21,0L39.73,308.17A2.16,2.16,0,0,0,39,309Z" style="fill:#fff;opacity:0.30000000000000004"></path><path d="M100.54,341.84,85.85,410.59a1.36,1.36,0,0,0-.06.45,1.79,1.79,0,0,0,0,.21,1.34,1.34,0,0,0,.68.73,4.94,4.94,0,0,0,4.41,0,1.45,1.45,0,0,0,.62-.57l.07-.22,0-.09L107.25,338" style="fill:#455a64"></path></g><g id="freepik--character--inject-79"><path id="freepik--shadow--inject-79" d="M49.36,341.33a9.91,9.91,0,0,0,3,6.6c4,4,9.18,8.42,16.36,9,3.85.31,6.94-.09,9.21-1.22,4.74-2.35,6.7-4.58,12.15-7.45a2.79,2.79,0,0,0,.33-.19L62,331.65a41.91,41.91,0,0,0-6.9,2.76C52.31,335.85,49.34,338.16,49.36,341.33Zm35.22-7.6a99.92,99.92,0,0,0,14.65.78c4.94-.27,12.64-1.31,15-6.53,1.37-3.05-1.82-5.69-4-7.12a111.66,111.66,0,0,0-11.64-6.53,36.18,36.18,0,0,0-9.11-3.3c-7.33-1.33-14.76,1.2-21.67,4a14.78,14.78,0,0,0-5.84,3.5,3,3,0,0,0-.75,1.3,3.7,3.7,0,0,0,.11,1.65c0,.19.09.38.13.57l20.25,11.75A11.51,11.51,0,0,1,84.58,333.73Z" style="opacity:0.15"></path><g id="freepik--Bottom--inject-79"><path d="M74.73,268.8c-2,13.83-5.39,35-7.53,51.36-.34,1.93.22,2.2.13,3.48-.16,1.61-12.73,2.08-12.62.1a7.81,7.81,0,0,1-.4-2.84c.1-8.45-3.07-23.43-3.65-36.91-.45-10.17,1.71-15.2,3-20.33,0,0-3.22-30.21-4-59.25a51.92,51.92,0,0,1,9-31.21l23.87,4.11s-3,32.18-4.85,61.75C77.19,246.86,76.72,255,74.73,268.8Z" style="fill:#ffbda7"></path><path d="M94.78,182.29c3,5.89,15.36,33.77,20.68,52.07,1.28,4.41,2.91,7.42-2.66,21.14-2.79,6.88-13.11,30.08-16.57,39.41a40.79,40.79,0,0,0-2.38,8.92c-5.24,3.37-13.53,1.3-13.53,1.3s.79-6.78,1.13-9.75c1.79-15.71,1.08-39,11.18-50.64C85,232.23,63.19,197.07,58.31,175.2Z" style="fill:#ffbda7"></path><path d="M68.32,312a14.53,14.53,0,0,1-8,1.27c-2.84-.19-5.15-.48-6.67-1.41-.6-5-3-19.18-3.4-30.54a55.6,55.6,0,0,1,2.56-17.63s-2.47-16.75-6.16-51.5c-.49-4.62-2.71-14.78-2.49-26,.17-8.48,2.92-17.94,3.27-21.44l47.81.82L98,177.27c3,5.9,13.51,37.36,18.69,55.7,2.07,7.32,2,10.74-3,22.08-2.44,5.51-14,32.22-17.45,39.86-7.92,2.08-11.79-.56-14.43-3.08.43-10.15.8-22.06,3.08-31.75a50.84,50.84,0,0,1,6.9-15.84c-3.51-5.77-12.43-21-12.43-21-.68,7.84-.59,9.89-1.16,18.58-.51,7.8-1.32,13.57-2.91,25.12C74.18,274.8,69.53,306.89,68.32,312Z" style="fill:#37474f"></path><path d="M79.35,223.2l1.54-20.38a23.63,23.63,0,0,0,10.89-11.35S91,200,83.9,204.54l-2.13,15.54,10,24.16Z" style="fill:#263238"></path><path d="M51.24,331.19a8.53,8.53,0,0,0,.2,2.15c.42.92,1.6,1.28,2.33,2.89,1.19,2.63.94,6.25,1.69,9.77a9.4,9.4,0,0,0,5.86,6.74,18.67,18.67,0,0,0,12,.94c2.67-.68,3.48-1.63,4-2.31a10.71,10.71,0,0,0,.23-2.36s-4.12-1.88-5.49-2.33S51.24,331.19,51.24,331.19Z" style="fill:#263238"></path><path d="M51.24,331.19a6.24,6.24,0,0,0,1.33,1.52,14.58,14.58,0,0,1,1.86,1.74c1.09,1.36,1.14,2.92,1.51,4.63.28,1.3.28,2.64.52,3.95.4,2.21.54,4.29,2.1,5.9s4.74,2.44,7,2.74c6.43.85,9.24.08,10.93-1.67,1.28-1.32,1.13-3.16-2.08-7.13A8.43,8.43,0,0,1,71,339c-2-4.57-2.8-9.35-2.8-18.85,0-1-5-1.64-7.8-1a5,5,0,0,0-1.58.53c-.37.41-.31,1.37-.42,1.87-.34,1.5-.75,1.64-1.11,1.71-.54.11-1-.33-1.55-2.26a1.71,1.71,0,0,0-1.41-1.27V319c-.5-.07-.77.2-.81,1,.12,3.94-.09,3.67-1,5.56C51.66,327.21,50.86,328.8,51.24,331.19Z" style="fill:#455a64"></path><path d="M57.82,348a12,12,0,0,1,7.69-6.2c5.81-1.69,8.69.68,10.09,2.16,1.66,1.76,2.68,4.71,1.32,6.26-2,2.22-4.82,2.6-10.31,2.18C59.59,351.83,57.82,348,57.82,348Z" style="fill:#fafafa"></path><path d="M78.36,312.45a5.41,5.41,0,0,0-.17,2.15c.42.92,1.35,1.81,5.31,3.82,1.34.68,2.71,2,4.22,4.5a15.9,15.9,0,0,0,7.39,6.26,22.08,22.08,0,0,0,13.07,1.09C113.62,329.19,114,326,114,326s.23-3-1.14-3.48S78.36,312.45,78.36,312.45Z" style="fill:#263238"></path><path d="M79.92,302.17c.08,3.29-2.37,6.27-1.56,10.28,1.56,3.78,6.64,3.74,8.89,6.74s5,7.64,12.13,8.92,12.55-1.1,13.84-3.16-.08-4.06-4.51-6.8-12.58-10.49-13.08-11.37-.83-2.11-.46-4.38c-.23-1.16-6.17-3.13-9.53-.43-.49.4-.56,1.25-.78,1.84a1.43,1.43,0,0,1-.34.6,1.22,1.22,0,0,1-.89.23,2.74,2.74,0,0,1-1.71-.78,5.71,5.71,0,0,1-1.19-2.28l.14-1.14c-.3-.11-.79.24-.91.72A5.32,5.32,0,0,0,79.92,302.17Z" style="fill:#455a64"></path><path d="M94.71,326.49a9.09,9.09,0,0,1,5.15-7.86c5.33-2.86,8.64-1.15,10.31,0,2,1.37,4.86,4.27,3.2,6.44-1.8,2.36-4.73,3.51-10.22,3.69S94.71,326.49,94.71,326.49Z" style="fill:#fafafa"></path></g><g id="freepik--Top--inject-79"><path d="M180.55,141.69l2-4a2.06,2.06,0,0,0-2.17-.92c-1.57.23-3.32,2.89-6.48,3.9s-7.92,2.07-7.83,1.58,3.25-3.63,3.49-5.46-1-2.74-3-1.16a50,50,0,0,1-6.43,4.24c-3.27,1.91-5.64,3.84-8.37,4h0l-26.78-3s-13.65-14.79-19.4-21.15c-4.87-5.38-7.1-6.42-14.55-7.85l5,26.39s15.15,12.58,18.9,15.38,5.66,3.27,13.08,3.17c4.5-.06,23.89-.91,26.84-.89,3.52,0,4.83.48,7.52.29a31,31,0,0,0,10.39-2.38c4.19-1.8,6-4.46,7.68-8.22S180.55,141.69,180.55,141.69Z" style="fill:#ffbda7"></path><path d="M165.26,143.82c-1.39,4.36-5.42,5.26-9.35,5.44C157.52,150,164.73,150.49,165.26,143.82Z" style="fill:#f0997a"></path><path d="M91.05,111.44c3,.38,7-.79,10.82.77s4.84,6.23,8.37,11,14.84,17.32,14.84,17.32l14.35,2s-2.8,1.23-3.51,6.3a8.37,8.37,0,0,0,2.66,7.67s-9.56.77-14.92.77-5.65-.79-10.94-4.76-17.38-13.78-17.38-13.78Z" style="fill:#f0f0f0"></path><g id="freepik--Chest--inject-79"><path d="M98.26,177.14,94.44,161.9l3-11.91c6.81-2.75,8.36-9.6,7.11-15.83a48,48,0,0,0-5.41-13.28c-3.67-6.46-6.42-8.19-8-9.44-2.46-.7-4.33-1-4.33-1s-11.49-1.6-18.48.11a85.8,85.8,0,0,0-10.8,3.37c1,3.62,2.54,13.48.06,19.23-3,6.93-5,5.06-5,5.06a107.34,107.34,0,0,0-4,17.46c-1.49,9.38-2.8,15.08-3.66,22.46,9,5.54,26.94,11,39.24,8C94,183.73,98.26,177.14,98.26,177.14Z" style="fill:#73ADFF"></path><path d="M98.26,177.14,94.44,161.9l3-11.91c6.81-2.75,8.36-9.6,7.11-15.83a48,48,0,0,0-5.41-13.28c-3.67-6.46-6.42-8.19-8-9.44-2.46-.7-4.33-1-4.33-1s-11.49-1.6-18.48.11a85.8,85.8,0,0,0-10.8,3.37c1,3.62,2.54,13.48.06,19.23-3,6.93-5,5.06-5,5.06a107.34,107.34,0,0,0-4,17.46c-1.49,9.38-2.8,15.08-3.66,22.46,9,5.54,26.94,11,39.24,8C94,183.73,98.26,177.14,98.26,177.14Z" style="opacity:0.6000000000000001"></path><path d="M81.08,151.3a13.44,13.44,0,0,1-17.89-4.25,11.07,11.07,0,0,0,7.74,7.32C78.48,156.17,81.08,151.3,81.08,151.3Z" style="opacity:0.2"></path></g><g id="freepik--Head--inject-79"><path d="M97.45,86.77c5.62-4.14,5-12.32,1.21-16.73-5.15-6-15.85-7.68-21.93-6.85-4.09.56-8.87,2.66-10.26,6.23-4.44,3.72-6.74,9.51-5.76,16.65S67.44,96.76,67.3,99.9Z" style="fill:#263238"></path><path d="M66.47,69.43c-3.41.18-8.42,5.78-7.65,15.9.6,7.86-3.84,14-2.51,17.22s5,4.38,6,4.21a6.18,6.18,0,0,1-1.3-5.1s1.17,5.76,8.95,7.11,11.92-.49,11.92-.49a17.64,17.64,0,0,0,9.69-.44c3.14-1.08,6.28-3.38,7.33-7-4.4.13-8.87-6.2-8-16.91s1-11.79,1-11.79Z" style="fill:#263238"></path><path d="M63.75,84.4c3.12-.41,3.91,1.85,5.39,2.85a1.49,1.49,0,0,0,2.2-.79c.6-2.1.28-6.91,2.93-9.6,3.3-3.34,7-3.81,11.24-.44C90.7,71.82,98,74.05,97.44,89.81,97,102,93.49,105.05,91.68,106c-2.67,1.41-5.36,1.12-8.89.66l-.42,5.92s7.49,7.57.42,9c-11,2.26-16-10-16-10l.76-16.8h0C67.22,96,63.45,96.23,61.8,94,58.92,90,59.93,84.91,63.75,84.4Z" style="fill:#ffbda7"></path><path d="M81.22,96.59l5.14,1.88A2.75,2.75,0,0,1,82.6,100,2.57,2.57,0,0,1,81.22,96.59Z" style="fill:#b16668"></path><path d="M84.1,100.21a2.87,2.87,0,0,0-2.79-2.67l-.26,0A2.41,2.41,0,0,0,82.6,100,3.18,3.18,0,0,0,84.1,100.21Z" style="fill:#ffa8a7"></path><polygon points="86.34 84.31 86.74 94.47 91.6 92.3 86.34 84.31" style="fill:#f0997a"></polygon><path d="M95.4,83.63l-3.8-1.31A1.93,1.93,0,0,1,94.09,81,2.11,2.11,0,0,1,95.4,83.63Z" style="fill:#263238"></path><path d="M77.71,84.42,81.3,82.5a2,2,0,0,0-2.7-.89A2.14,2.14,0,0,0,77.71,84.42Z" style="fill:#263238"></path><path d="M91.38,86.93a1.55,1.55,0,0,0,1.42,1.62,1.44,1.44,0,0,0,1.59-1.36A1.55,1.55,0,0,0,93,85.57,1.46,1.46,0,0,0,91.38,86.93Z" style="fill:#263238"></path><path d="M79.25,87.4A1.54,1.54,0,0,0,80.66,89a1.45,1.45,0,0,0,1.6-1.36A1.56,1.56,0,0,0,80.84,86,1.46,1.46,0,0,0,79.25,87.4Z" style="fill:#263238"></path><path d="M82.79,106.66c-3.4-.69-9.58-2.9-10.49-5.77,0,0-.26,2.29,2.29,4.44,2.14,1.79,8.08,3.13,8.08,3.13Z" style="fill:#f0997a"></path></g><path d="M82.79,121.61l-3.21-4A11.88,11.88,0,0,1,71.17,115a20.37,20.37,0,0,1-4.33-4.9l-.07,1.61C68.27,115.77,73.78,124,82.79,121.61Z" style="fill:#e0e0e0"></path><path d="M80.09,118.23c-.58-.73-1.59-.3-2.78,1.46s-1.92,4.83-2.52,5.45-2.19-.79-4.13-2.88-5.54-6.68-7.11-10.47a6.05,6.05,0,0,0,2.2-2.67c.56-1.15.53-1.86,1.22-1.88l-.07,1.55a10.81,10.81,0,0,0,4.21,4.56C77.22,117.12,77.92,115.18,80.09,118.23Z" style="fill:#f0f0f0"></path><path d="M82.79,121.61l-.45-4.37a5.81,5.81,0,0,0,0-4.66C85.08,115.09,88.66,120.49,82.79,121.61Z" style="fill:#e0e0e0"></path><path d="M82.52,119c0-2,1-2.24,1.67-1.94s2.66,2.89,3.61,4c.73.88.86-2,.11-4.47s-5.2-8.81-5.2-8.81l-.34,4.79a9,9,0,0,1,0,3.23A9.19,9.19,0,0,0,82.52,119Z" style="fill:#f0f0f0"></path><path d="M106.54,192.32,86.41,141.79,48.19,161.9v0c-2.91,1.35-5.06,4.56-5.77,9.4-1.47,10.12,3.84,23.45,11.86,29.78,3.85,3,7.61,3.89,10.66,2.86v0Z" style="fill:#73ADFF"></path><path d="M106.54,192.32,86.41,141.79,48.19,161.9v0c-2.91,1.35-5.06,4.56-5.77,9.4-1.47,10.12,3.84,23.45,11.86,29.78,3.85,3,7.61,3.89,10.66,2.86v0Z" style="fill:#fff;opacity:0.45"></path><path d="M100.09,144.92c9.62,7.6,16,23.6,14.23,35.73s-11,15.82-20.63,8.22-16-23.6-14.23-35.73S90.46,137.32,100.09,144.92Z" style="fill:#73ADFF"></path><path d="M100.09,144.92c9.62,7.6,16,23.6,14.23,35.73s-11,15.82-20.63,8.22-16-23.6-14.23-35.73S90.46,137.32,100.09,144.92Z" style="fill:#fff;opacity:0.75"></path><ellipse cx="96.89" cy="166.9" rx="13.85" ry="24.95" transform="translate(-54.88 47.69) rotate(-21.72)" style="fill:#73ADFF"></ellipse><ellipse cx="96.89" cy="166.9" rx="13.85" ry="24.95" transform="translate(-54.88 47.69) rotate(-21.72)" style="fill:#fff;opacity:0.35000000000000003"></ellipse><path d="M66.41,182.67C68.67,184,71.57,184,75,184.9s7.38,2.66,9.08,2.86c2.13.26,1.47,2.54-.7,2.88s-6.28-.78-6.13.16,2,2.38,3,3c2.7,1.87,5,3.46,9.16,3.32l1.84-.52a2.66,2.66,0,0,1-1.86,3.12,6.88,6.88,0,0,1-1.57-.06,1.78,1.78,0,0,0-1.45.47c-.32.36-.36.91-.69,1.26a1.77,1.77,0,0,1-.82.41,5.66,5.66,0,0,1-1.69.19,9.41,9.41,0,0,0-1.4,0,9,9,0,0,0-2.3.89c-3.27,1.33-7-.29-9.91-1.75C63.3,198,61.61,195,58.3,192.62S40.51,180.7,33.75,174.94c-7.08-6-4.56-6.87-2.11-15.77s8.69-26.56,11.29-33.43c2.75-7.25,6.78-9.14,14.32-11.53,3.93,3.52,6.49,15.17-.36,28.56l-9.43,22S64.15,181.34,66.41,182.67Z" style="fill:#ffbda7"></path><path d="M57.44,113.88c-3.52.33-8.07-.38-10.84,1.22-4.64,2.68-4,5.61-5.75,11.78-1.31,4.62-10,32.87-11.27,36.61s-2.9,6.6,1.18,10.07,14.82,10.29,14.82,10.29a12.24,12.24,0,0,1,1.86-7.78c2.45-3.67,7.48-4,7.48-4L48,164.75S55.4,147.89,58.31,141,64.19,120.63,57.44,113.88Z" style="fill:#f0f0f0"></path></g></g><g id="freepik--Numbers--inject-79"><path d="M105.12,187.84a.31.31,0,0,1,0,.25.32.32,0,0,1-.15.19l-.44.23a.36.36,0,0,1-.25,0,.33.33,0,0,1-.19-.16l-3.06-5.86-1,2.2a.27.27,0,0,1-.18.18.39.39,0,0,1-.24,0l-.43-.19a.32.32,0,0,1-.17-.19.31.31,0,0,1,0-.25l1.37-2.93a.35.35,0,0,1,.13-.16l.16-.1.44-.23a.31.31,0,0,1,.25,0,.33.33,0,0,1,.19.16Z" style="fill:#73ADFF"></path><path d="M143.79,237.82a.36.36,0,0,1,0,.25.33.33,0,0,1-.16.19l-.44.22a.29.29,0,0,1-.24,0,.4.4,0,0,1-.2-.16l-3.05-5.87-1,2.21a.32.32,0,0,1-.18.18.42.42,0,0,1-.25,0l-.43-.2a.28.28,0,0,1-.17-.18.36.36,0,0,1,0-.25L139,231.3a.43.43,0,0,1,.13-.16l.17-.1.43-.23a.31.31,0,0,1,.25,0,.31.31,0,0,1,.19.16Z" style="fill:#73ADFF"></path><path d="M129.11,227.22a.33.33,0,0,1,0,.24.35.35,0,0,1-.16.2l-.44.22a.29.29,0,0,1-.24,0,.28.28,0,0,1-.19-.16L125,221.88l-1,2.21a.32.32,0,0,1-.18.18.42.42,0,0,1-.25,0l-.43-.2a.33.33,0,0,1-.17-.18.31.31,0,0,1,0-.25l1.36-2.93a.59.59,0,0,1,.13-.17l.17-.1.43-.22a.31.31,0,0,1,.25,0,.29.29,0,0,1,.19.15Z" style="fill:#73ADFF"></path><path d="M164.37,226.12a.31.31,0,0,1,0,.25.33.33,0,0,1-.16.19l-.43.22a.31.31,0,0,1-.25,0,.32.32,0,0,1-.19-.15l-3.06-5.87-1,2.21a.27.27,0,0,1-.18.18.39.39,0,0,1-.24,0l-.43-.2a.33.33,0,0,1-.17-.18.31.31,0,0,1,0-.25l1.37-2.93a.35.35,0,0,1,.13-.16.7.7,0,0,1,.16-.1l.44-.23a.31.31,0,0,1,.25,0,.3.3,0,0,1,.19.16Z" style="fill:#73ADFF"></path><path d="M145.65,215a.31.31,0,0,1-.08.24.39.39,0,0,1-.22.11l-.5,0a.3.3,0,0,1-.23-.08.33.33,0,0,1-.11-.22l-.35-6.61-1.86,1.58a.28.28,0,0,1-.24.09.42.42,0,0,1-.22-.11l-.31-.36a.34.34,0,0,1-.08-.23.35.35,0,0,1,.12-.23l2.46-2.1a.38.38,0,0,1,.18-.09l.19,0,.5,0a.3.3,0,0,1,.23.08.33.33,0,0,1,.11.22Z" style="fill:#73ADFF"></path><path d="M167.16,254.11a.3.3,0,0,1-.07.24.32.32,0,0,1-.22.12l-.48.06a.34.34,0,0,1-.24-.06.32.32,0,0,1-.12-.22l-.8-6.56-1.75,1.7a.3.3,0,0,1-.23.1.37.37,0,0,1-.23-.1l-.33-.33a.29.29,0,0,1-.1-.23.33.33,0,0,1,.1-.23l2.31-2.26a.44.44,0,0,1,.18-.11l.19,0,.49-.05a.29.29,0,0,1,.24.06.32.32,0,0,1,.12.22Z" style="fill:#73ADFF"></path><path d="M163.75,214.6a.32.32,0,0,1-.14.2.32.32,0,0,1-.25,0l-.48-.12a.35.35,0,0,1-.2-.14.31.31,0,0,1,0-.25l1.56-6.42-2.24,1a.28.28,0,0,1-.25,0,.42.42,0,0,1-.18-.17l-.2-.43a.31.31,0,0,1,0-.25.33.33,0,0,1,.17-.18l3-1.31a.39.39,0,0,1,.21,0l.19,0,.47.12a.3.3,0,0,1,.2.14.32.32,0,0,1,0,.25Z" style="fill:#73ADFF"></path><path d="M119.56,212.11a.33.33,0,0,1-.16.19.34.34,0,0,1-.24,0l-.48-.13a.33.33,0,0,1-.19-.16.29.29,0,0,1,0-.24l1.8-6.36-2.27.88a.25.25,0,0,1-.25,0,.39.39,0,0,1-.18-.18l-.17-.43a.28.28,0,0,1,0-.25.33.33,0,0,1,.18-.17l3-1.2a.36.36,0,0,1,.2,0l.19,0,.48.14a.31.31,0,0,1,.19.15.36.36,0,0,1,0,.25Z" style="fill:#73ADFF"></path><path d="M125.26,180.84a.3.3,0,0,1,.07.24.3.3,0,0,1-.12.22l-.39.3a.3.3,0,0,1-.24.07.32.32,0,0,1-.22-.12l-4.07-5.21-.62,2.37a.28.28,0,0,1-.15.2.41.41,0,0,1-.24,0l-.46-.12a.32.32,0,0,1-.2-.14.31.31,0,0,1,0-.25l.8-3.13a.49.49,0,0,1,.1-.19l.15-.13.38-.3a.3.3,0,0,1,.24-.07.32.32,0,0,1,.22.12Z" style="fill:#73ADFF"></path><path d="M94.69,183a.31.31,0,0,1-.11.23.27.27,0,0,1-.23.08l-.49,0a.34.34,0,0,1-.31-.34l.29-6.6-2,1.39a.26.26,0,0,1-.24.06.38.38,0,0,1-.21-.13l-.27-.39a.29.29,0,0,1-.06-.24.31.31,0,0,1,.14-.21l2.65-1.85a.39.39,0,0,1,.19-.08,1.34,1.34,0,0,1,.2,0l.49,0a.28.28,0,0,1,.22.11.32.32,0,0,1,.09.23Z" style="fill:#73ADFF"></path><path d="M180.4,259.42a.28.28,0,0,1,0,.25.32.32,0,0,1-.19.15l-.48.13a.34.34,0,0,1-.24,0,.37.37,0,0,1-.16-.19l-1.76-6.38-1.48,2a.28.28,0,0,1-.21.13.34.34,0,0,1-.24-.06l-.38-.28a.27.27,0,0,1-.13-.21.34.34,0,0,1,.06-.24l2-2.59a.48.48,0,0,1,.16-.13,1.06,1.06,0,0,1,.19-.06l.47-.13a.28.28,0,0,1,.25,0,.32.32,0,0,1,.15.19Z" style="fill:#73ADFF"></path><path d="M180,274.3a.3.3,0,0,1-.17.18.29.29,0,0,1-.24,0l-.47-.16a.33.33,0,0,1-.18-.17.31.31,0,0,1,0-.25l2.23-6.22-2.32.73a.27.27,0,0,1-.25,0,.39.39,0,0,1-.17-.19l-.14-.45a.29.29,0,0,1,0-.24.28.28,0,0,1,.19-.16l3.08-1a.38.38,0,0,1,.21,0l.18.05.47.17a.31.31,0,0,1,.19.41Z" style="fill:#73ADFF"></path><path d="M132.58,276.75a.33.33,0,0,1-.17.18.31.31,0,0,1-.25,0l-.46-.17a.33.33,0,0,1-.18-.17.31.31,0,0,1,0-.25l2.37-6.17-2.35.68a.28.28,0,0,1-.25,0,.42.42,0,0,1-.16-.19l-.13-.45a.31.31,0,0,1,0-.25.34.34,0,0,1,.2-.15l3.1-.92a.38.38,0,0,1,.21,0l.18.05.46.18a.33.33,0,0,1,.18.17.31.31,0,0,1,0,.25Z" style="fill:#73ADFF"></path><path d="M177.55,243.67a.33.33,0,0,1-.16.19.32.32,0,0,1-.25,0l-.47-.15a.33.33,0,0,1-.19-.16.31.31,0,0,1,0-.25l2-6.29-2.3.81a.25.25,0,0,1-.25,0,.33.33,0,0,1-.17-.18l-.16-.44a.31.31,0,0,1,0-.25.31.31,0,0,1,.19-.16l3-1.09a.32.32,0,0,1,.21,0l.19,0,.47.15a.37.37,0,0,1,.19.16.36.36,0,0,1,0,.25Z" style="fill:#73ADFF"></path><path d="M135.5,193.2a.3.3,0,0,1-.08.23.33.33,0,0,1-.22.11l-.49,0a.31.31,0,0,1-.24-.08.31.31,0,0,1-.11-.22l-.36-6.6-1.86,1.58a.29.29,0,0,1-.23.08.38.38,0,0,1-.23-.11l-.3-.35a.31.31,0,0,1-.08-.24.31.31,0,0,1,.11-.22l2.46-2.11a.37.37,0,0,1,.19-.09l.19,0,.49,0a.29.29,0,0,1,.23.08.34.34,0,0,1,.11.23Z" style="fill:#73ADFF"></path><path d="M153.46,259.7a.35.35,0,0,1-.09.23.32.32,0,0,1-.22.1h-.5a.27.27,0,0,1-.23-.09.3.3,0,0,1-.1-.22l-.19-6.61-1.9,1.53a.27.27,0,0,1-.24.08.36.36,0,0,1-.22-.11l-.29-.37a.31.31,0,0,1-.08-.24.3.3,0,0,1,.12-.21l2.51-2.05a.46.46,0,0,1,.19-.09h.19l.5,0a.35.35,0,0,1,.23.09.33.33,0,0,1,.1.23Z" style="fill:#73ADFF"></path><path d="M142,254.25a.32.32,0,0,1-.14.2.32.32,0,0,1-.25,0l-.48-.11a.33.33,0,0,1-.2-.15.34.34,0,0,1,0-.24l1.53-6.44-2.24,1a.28.28,0,0,1-.25,0,.37.37,0,0,1-.18-.17l-.19-.43a.31.31,0,0,1,0-.25.33.33,0,0,1,.17-.18l3-1.32a.41.41,0,0,1,.21,0l.19,0,.48.12a.35.35,0,0,1,.2.14.36.36,0,0,1,0,.25Z" style="fill:#73ADFF"></path><path d="M115.51,196.62c-.09.35-.17.68-.26,1s-.18.63-.28,1a4.68,4.68,0,0,1-.54,1.2,3.07,3.07,0,0,1-.82.86,2.49,2.49,0,0,1-1.09.42,3.38,3.38,0,0,1-1.38-.12,3.34,3.34,0,0,1-1.24-.6,2.58,2.58,0,0,1-.73-.93,3.08,3.08,0,0,1-.26-1.16,4.54,4.54,0,0,1,.16-1.3l.26-1c.08-.3.18-.62.28-1a4.68,4.68,0,0,1,.54-1.2,2.82,2.82,0,0,1,.82-.86,2.5,2.5,0,0,1,1.09-.43,3.36,3.36,0,0,1,1.38.11,3.26,3.26,0,0,1,1.25.62,2.54,2.54,0,0,1,.72.92,3.13,3.13,0,0,1,.26,1.16A5,5,0,0,1,115.51,196.62Zm-5.35.63a2.55,2.55,0,0,0,0,1.75,1.86,1.86,0,0,0,1.23.9,1.79,1.79,0,0,0,1.51-.14,2.56,2.56,0,0,0,.94-1.48c.11-.35.2-.67.28-1s.17-.63.26-1a2.52,2.52,0,0,0,0-1.76,2.12,2.12,0,0,0-2.74-.76,2.59,2.59,0,0,0-.94,1.49c-.11.35-.2.67-.28,1S110.25,196.9,110.16,197.25Z" style="fill:#73ADFF"></path><path d="M135.41,256.62c-.09.35-.17.67-.26,1s-.18.63-.28,1a4.39,4.39,0,0,1-.54,1.2,3,3,0,0,1-.81.87,2.58,2.58,0,0,1-1.1.42,3.76,3.76,0,0,1-2.62-.73,2.47,2.47,0,0,1-.73-.92,2.94,2.94,0,0,1-.25-1.16,4.63,4.63,0,0,1,.15-1.31c.09-.35.18-.67.26-1s.18-.63.28-1a4.59,4.59,0,0,1,.54-1.21,3.07,3.07,0,0,1,.82-.86,2.49,2.49,0,0,1,1.09-.42,3.2,3.2,0,0,1,1.38.11,3.25,3.25,0,0,1,1.25.61,2.66,2.66,0,0,1,.72.93,3.13,3.13,0,0,1,.26,1.16A4.65,4.65,0,0,1,135.41,256.62Zm-5.35.62a2.58,2.58,0,0,0,0,1.76,1.86,1.86,0,0,0,1.23.9,1.79,1.79,0,0,0,1.51-.15,2.53,2.53,0,0,0,.94-1.48c.11-.34.2-.67.28-1s.17-.63.26-1a2.52,2.52,0,0,0,0-1.76,2.11,2.11,0,0,0-2.74-.76,2.55,2.55,0,0,0-.94,1.49c-.1.34-.2.67-.28,1S130.15,256.89,130.06,257.24Z" style="fill:#73ADFF"></path><path d="M137.64,216.17c0,.35-.1.69-.16,1s-.11.64-.17,1a5,5,0,0,1-.41,1.25,3,3,0,0,1-.72.94,2.52,2.52,0,0,1-1,.54,3.39,3.39,0,0,1-1.39,0,3.23,3.23,0,0,1-1.3-.47,2.44,2.44,0,0,1-.82-.84,3.09,3.09,0,0,1-.38-1.12,4.89,4.89,0,0,1,0-1.32c0-.36.1-.69.15-1s.11-.65.18-1a4.48,4.48,0,0,1,.41-1.25,3,3,0,0,1,.72-.95,2.65,2.65,0,0,1,1-.54,3.72,3.72,0,0,1,2.69.45,2.49,2.49,0,0,1,.81.84,2.8,2.8,0,0,1,.38,1.13A4.87,4.87,0,0,1,137.64,216.17Zm-5.26,1.18a2.52,2.52,0,0,0,.23,1.74,1.81,1.81,0,0,0,1.32.77,1.83,1.83,0,0,0,1.49-.3,2.56,2.56,0,0,0,.77-1.58c.07-.35.13-.68.18-1s.1-.64.15-1a2.54,2.54,0,0,0-.22-1.74,2.12,2.12,0,0,0-2.81-.47,2.59,2.59,0,0,0-.78,1.58c-.06.36-.12.69-.17,1S132.43,217,132.38,217.35Z" style="fill:#73ADFF"></path><path d="M157.66,237.4l.51.87c.16.28.32.57.49.89a4.78,4.78,0,0,1,.47,1.23,3,3,0,0,1,0,1.19,2.57,2.57,0,0,1-.48,1.07,3.41,3.41,0,0,1-1.06.89,3.3,3.3,0,0,1-1.31.45,2.37,2.37,0,0,1-1.16-.14,2.9,2.9,0,0,1-1-.63,4.77,4.77,0,0,1-.82-1l-.51-.87c-.16-.28-.32-.57-.49-.89a4.78,4.78,0,0,1-.47-1.23,3,3,0,0,1,0-1.19,2.62,2.62,0,0,1,.47-1.07,3.3,3.3,0,0,1,1.06-.9,3.36,3.36,0,0,1,1.31-.45,2.66,2.66,0,0,1,1.17.14,3.09,3.09,0,0,1,1,.64A4.77,4.77,0,0,1,157.66,237.4Zm-3.34,4.23a2.53,2.53,0,0,0,1.28,1.2,1.77,1.77,0,0,0,1.5-.23,1.85,1.85,0,0,0,1-1.17,2.55,2.55,0,0,0-.39-1.71c-.17-.32-.33-.62-.49-.89l-.51-.88a2.6,2.6,0,0,0-1.28-1.21,2.12,2.12,0,0,0-2.47,1.41,2.56,2.56,0,0,0,.39,1.71c.17.32.33.62.49.89Z" style="fill:#73ADFF"></path><path d="M152.67,224.57c-.09.35-.18.68-.26,1s-.18.63-.29,1a4.59,4.59,0,0,1-.54,1.21,2.93,2.93,0,0,1-.82.86,2.49,2.49,0,0,1-1.09.42,3.4,3.4,0,0,1-1.38-.13,3.2,3.2,0,0,1-1.24-.61,2.47,2.47,0,0,1-.73-.92,3.12,3.12,0,0,1-.25-1.16,4.65,4.65,0,0,1,.16-1.31c.09-.35.17-.67.26-1s.18-.63.28-1a4.39,4.39,0,0,1,.54-1.2,2.82,2.82,0,0,1,.82-.86,2.67,2.67,0,0,1,1.1-.43,3.76,3.76,0,0,1,2.62.73,2.66,2.66,0,0,1,.72.93,2.94,2.94,0,0,1,.26,1.16A5,5,0,0,1,152.67,224.57Zm-5.36.62a2.61,2.61,0,0,0,0,1.75,1.86,1.86,0,0,0,1.23.9,1.79,1.79,0,0,0,1.51-.14,2.53,2.53,0,0,0,.95-1.48c.1-.34.2-.67.28-1s.17-.63.26-1a2.52,2.52,0,0,0,0-1.76,1.79,1.79,0,0,0-1.22-.91,1.82,1.82,0,0,0-1.52.14,2.59,2.59,0,0,0-.94,1.49c-.11.35-.2.67-.28,1S147.4,224.84,147.31,225.19Z" style="fill:#73ADFF"></path><path d="M132.15,238.51c0,.35.09.69.12,1s.07.65.1,1a4.8,4.8,0,0,1-.06,1.32,3.06,3.06,0,0,1-.44,1.1,2.55,2.55,0,0,1-.87.79,3.72,3.72,0,0,1-2.7.29,2.37,2.37,0,0,1-1-.59,3.1,3.1,0,0,1-.67-1,4.73,4.73,0,0,1-.34-1.28c0-.36-.08-.69-.11-1s-.07-.65-.1-1a4.71,4.71,0,0,1,.06-1.31,3,3,0,0,1,.44-1.1,2.65,2.65,0,0,1,.86-.8,3.25,3.25,0,0,1,1.33-.4,3.21,3.21,0,0,1,1.38.11,2.5,2.5,0,0,1,1,.6,3,3,0,0,1,.67,1A4.38,4.38,0,0,1,132.15,238.51Zm-4.74,2.54a2.52,2.52,0,0,0,.68,1.62,2.17,2.17,0,0,0,2.83-.3,2.61,2.61,0,0,0,.33-1.73c0-.36-.06-.69-.1-1s-.07-.65-.12-1a2.55,2.55,0,0,0-.68-1.63,1.82,1.82,0,0,0-1.48-.39,1.79,1.79,0,0,0-1.35.7,2.6,2.6,0,0,0-.33,1.73c0,.35.06.69.1,1S127.36,240.69,127.41,241.05Z" style="fill:#73ADFF"></path><path d="M170.62,264.17c-.16.32-.32.63-.47.9s-.3.58-.48.9a4.42,4.42,0,0,1-.78,1,2.9,2.9,0,0,1-1,.67,2.45,2.45,0,0,1-1.15.18,3.5,3.5,0,0,1-1.33-.41,3.44,3.44,0,0,1-1.08-.86,2.54,2.54,0,0,1-.51-1.06,3,3,0,0,1,0-1.19,4.36,4.36,0,0,1,.43-1.24c.16-.32.31-.62.46-.9l.48-.89a4.8,4.8,0,0,1,.79-1.06,2.86,2.86,0,0,1,1-.67,2.49,2.49,0,0,1,1.16-.18,3.18,3.18,0,0,1,1.33.41,3.29,3.29,0,0,1,1.08.86,2.67,2.67,0,0,1,.51,1.06,3,3,0,0,1,0,1.19A4.69,4.69,0,0,1,170.62,264.17Zm-5.37-.53a2.52,2.52,0,0,0-.33,1.72,1.83,1.83,0,0,0,1,1.14,1.85,1.85,0,0,0,1.51.19,2.6,2.6,0,0,0,1.23-1.25l.49-.89.46-.9a2.55,2.55,0,0,0,.33-1.73,1.77,1.77,0,0,0-1-1.15,1.8,1.8,0,0,0-1.51-.18,2.57,2.57,0,0,0-1.24,1.25l-.48.89C165.57,263,165.42,263.31,165.25,263.64Z" style="fill:#73ADFF"></path><path d="M154,269.56l.51.87.49.89a4.78,4.78,0,0,1,.47,1.23,3.2,3.2,0,0,1,0,1.19,2.52,2.52,0,0,1-.48,1.07,3.28,3.28,0,0,1-1.06.89,3.33,3.33,0,0,1-1.31.46,2.64,2.64,0,0,1-1.16-.14,3,3,0,0,1-1-.64,4.71,4.71,0,0,1-.82-1c-.18-.31-.36-.6-.51-.88s-.32-.57-.49-.88a4.44,4.44,0,0,1-.47-1.23,2.83,2.83,0,0,1,0-1.19,2.72,2.72,0,0,1,.47-1.08,3.3,3.3,0,0,1,1.06-.9,3.36,3.36,0,0,1,1.31-.45,2.66,2.66,0,0,1,1.17.15,2.93,2.93,0,0,1,1,.64A4.71,4.71,0,0,1,154,269.56Zm-3.34,4.23a2.54,2.54,0,0,0,1.27,1.21,1.87,1.87,0,0,0,1.51-.23,1.84,1.84,0,0,0,1-1.18,2.58,2.58,0,0,0-.39-1.71c-.17-.32-.34-.61-.49-.89l-.51-.87a2.58,2.58,0,0,0-1.28-1.22,1.84,1.84,0,0,0-1.51.23,1.8,1.8,0,0,0-1,1.18,2.59,2.59,0,0,0,.39,1.72c.17.31.33.61.49.88Z" style="fill:#73ADFF"></path><path d="M151.42,198.83c.21.29.4.57.57.83s.37.55.56.85a5.17,5.17,0,0,1,.57,1.19,3,3,0,0,1,.12,1.18,2.55,2.55,0,0,1-.39,1.11,3.8,3.8,0,0,1-2.26,1.52,2.55,2.55,0,0,1-1.17,0,3,3,0,0,1-1-.56,4.61,4.61,0,0,1-.89-1c-.21-.29-.4-.57-.58-.83s-.36-.55-.56-.85a4.75,4.75,0,0,1-.56-1.19,3,3,0,0,1-.12-1.18,2.54,2.54,0,0,1,.38-1.11,3.3,3.3,0,0,1,1-1,3.35,3.35,0,0,1,1.27-.54,2.59,2.59,0,0,1,1.18.05,3,3,0,0,1,1.05.56A5.21,5.21,0,0,1,151.42,198.83Zm-3,4.47a2.57,2.57,0,0,0,1.36,1.11,1.82,1.82,0,0,0,1.49-.35,1.8,1.8,0,0,0,.87-1.24,2.53,2.53,0,0,0-.51-1.68l-.56-.85c-.18-.26-.37-.54-.58-.83a2.57,2.57,0,0,0-1.36-1.11,1.82,1.82,0,0,0-1.49.34,1.8,1.8,0,0,0-.87,1.25,2.55,2.55,0,0,0,.52,1.68c.19.3.38.58.56.85S148.2,203,148.41,203.3Z" style="fill:#73ADFF"></path><path d="M132.81,197.77l.68.75.67.77a4.44,4.44,0,0,1,.71,1.11,2.86,2.86,0,0,1,.28,1.15,2.61,2.61,0,0,1-.24,1.15,3.38,3.38,0,0,1-.86,1.09,3.23,3.23,0,0,1-1.18.71,2.63,2.63,0,0,1-1.17.11,3,3,0,0,1-1.11-.42,4.65,4.65,0,0,1-1-.84c-.25-.26-.48-.52-.69-.75s-.43-.49-.66-.77a4.57,4.57,0,0,1-.71-1.1,2.9,2.9,0,0,1-.28-1.16,2.48,2.48,0,0,1,.24-1.15,3.33,3.33,0,0,1,.84-1.1,3.5,3.5,0,0,1,1.19-.71,2.8,2.8,0,0,1,1.18-.1,3,3,0,0,1,1.11.42A4.65,4.65,0,0,1,132.81,197.77Zm-2.39,4.83a2.51,2.51,0,0,0,1.5.92,2.13,2.13,0,0,0,2.12-1.89,2.51,2.51,0,0,0-.73-1.59c-.23-.28-.45-.53-.66-.77l-.68-.75a2.53,2.53,0,0,0-1.5-.92,2.11,2.11,0,0,0-2.13,1.88,2.57,2.57,0,0,0,.73,1.6l.67.77Z" style="fill:#73ADFF"></path><path d="M176,228.84c-.06.36-.12.69-.19,1s-.13.64-.21,1a4.94,4.94,0,0,1-.45,1.24,3.09,3.09,0,0,1-.75.92,2.58,2.58,0,0,1-1.06.49,3.82,3.82,0,0,1-2.67-.53,2.51,2.51,0,0,1-.79-.87,2.86,2.86,0,0,1-.34-1.14,5,5,0,0,1,.06-1.32c.07-.35.13-.68.19-1s.13-.64.21-1a4.67,4.67,0,0,1,.45-1.24,2.86,2.86,0,0,1,.76-.92,2.54,2.54,0,0,1,1.06-.5,3.21,3.21,0,0,1,1.38,0,3.45,3.45,0,0,1,1.29.52,2.6,2.6,0,0,1,.78.88,2.77,2.77,0,0,1,.34,1.14A4.5,4.5,0,0,1,176,228.84Zm-5.29,1a2.47,2.47,0,0,0,.17,1.74,2.13,2.13,0,0,0,2.78.56,2.55,2.55,0,0,0,.84-1.54c.07-.35.15-.69.21-1s.12-.64.19-1a2.61,2.61,0,0,0-.17-1.75,2.12,2.12,0,0,0-2.79-.56,2.52,2.52,0,0,0-.83,1.55q-.12.52-.21,1C170.84,229.16,170.78,229.49,170.72,229.85Z" style="fill:#73ADFF"></path><path d="M154.69,289.56a.3.3,0,0,1,0,.24.29.29,0,0,1-.19.15l-.48.13a.33.33,0,0,1-.24,0,.33.33,0,0,1-.15-.2l-1.7-6.39-1.5,1.93a.3.3,0,0,1-.22.13.34.34,0,0,1-.24-.06l-.37-.29a.3.3,0,0,1-.13-.21.3.3,0,0,1,.07-.24l2-2.57a.48.48,0,0,1,.16-.13l.18-.06.48-.12a.26.26,0,0,1,.24,0,.3.3,0,0,1,.15.2Z" style="fill:#73ADFF"></path><path d="M192.16,278.88a.27.27,0,0,1-.08.23.28.28,0,0,1-.22.11l-.49,0a.35.35,0,0,1-.24-.08.34.34,0,0,1-.1-.23l-.37-6.6-1.86,1.58a.25.25,0,0,1-.23.09.38.38,0,0,1-.22-.11l-.31-.36a.3.3,0,0,1-.08-.23.34.34,0,0,1,.11-.23l2.46-2.1a.5.5,0,0,1,.19-.1l.19,0,.49,0a.33.33,0,0,1,.23.09.31.31,0,0,1,.11.22Z" style="fill:#73ADFF"></path><path d="M141.71,284.83l-.23,1c-.08.3-.17.63-.26,1a4.54,4.54,0,0,1-.51,1.21,3,3,0,0,1-.8.88,2.49,2.49,0,0,1-1.08.45,3.38,3.38,0,0,1-1.39-.09,3.34,3.34,0,0,1-1.26-.58,2.56,2.56,0,0,1-.74-.9,2.91,2.91,0,0,1-.28-1.15,4.64,4.64,0,0,1,.12-1.32c.08-.35.16-.68.24-1s.16-.64.26-1a4.76,4.76,0,0,1,.51-1.22,3.06,3.06,0,0,1,.79-.88,2.58,2.58,0,0,1,1.09-.45,3.31,3.31,0,0,1,1.38.08,3.5,3.5,0,0,1,1.26.58,2.6,2.6,0,0,1,.74.92,2.87,2.87,0,0,1,.29,1.15A4.59,4.59,0,0,1,141.71,284.83Zm-5.33.75a2.51,2.51,0,0,0,.08,1.75,2.16,2.16,0,0,0,2.76.7,2.54,2.54,0,0,0,.9-1.51c.1-.34.18-.67.26-1s.16-.63.24-1a2.53,2.53,0,0,0-.09-1.76,1.77,1.77,0,0,0-1.24-.88,1.82,1.82,0,0,0-1.51.18,2.56,2.56,0,0,0-.91,1.51c-.09.35-.18.68-.26,1S136.46,285.23,136.38,285.58Z" style="fill:#73ADFF"></path><path d="M172.22,281.07c0,.36,0,.69-.06,1s-.06.65-.09,1a5.1,5.1,0,0,1-.3,1.28,3.06,3.06,0,0,1-.64,1,2.65,2.65,0,0,1-1,.62,3.18,3.18,0,0,1-1.38.14,3.34,3.34,0,0,1-1.34-.35,2.53,2.53,0,0,1-.88-.77,2.77,2.77,0,0,1-.48-1.09,5.09,5.09,0,0,1-.1-1.31c0-.36,0-.7.07-1s.05-.65.09-1a4.36,4.36,0,0,1,.3-1.28,2.89,2.89,0,0,1,.63-1,2.76,2.76,0,0,1,1-.63,3.3,3.3,0,0,1,1.37-.15,3.25,3.25,0,0,1,1.34.36,2.67,2.67,0,0,1,.89.77,3.06,3.06,0,0,1,.47,1.09A4.4,4.4,0,0,1,172.22,281.07Zm-5.13,1.64a2.51,2.51,0,0,0,.38,1.71,2.13,2.13,0,0,0,2.83.22,2.54,2.54,0,0,0,.64-1.64c0-.36.07-.69.09-1s.05-.65.07-1a2.61,2.61,0,0,0-.38-1.72,2.14,2.14,0,0,0-2.84-.22,2.62,2.62,0,0,0-.64,1.64c0,.36-.06.7-.09,1S167.11,282.35,167.09,282.71Z" style="fill:#73ADFF"></path><path d="M189,289.32l-.72.72c-.22.23-.46.46-.73.71a4.47,4.47,0,0,1-1.06.77,2.92,2.92,0,0,1-1.14.34,2.61,2.61,0,0,1-1.16-.18,3.46,3.46,0,0,1-1.14-.79,3.41,3.41,0,0,1-.77-1.15,2.61,2.61,0,0,1-.17-1.16,3,3,0,0,1,.36-1.13,4.82,4.82,0,0,1,.78-1.06c.26-.26.49-.5.72-.72l.73-.7a4.82,4.82,0,0,1,1.06-.78,3.1,3.1,0,0,1,1.14-.34,2.61,2.61,0,0,1,1.16.18A3.79,3.79,0,0,1,190,286a2.62,2.62,0,0,1,.16,1.16,3,3,0,0,1-.36,1.14A4.77,4.77,0,0,1,189,289.32Zm-5-2.13a2.56,2.56,0,0,0-.84,1.55,2.13,2.13,0,0,0,2,2,2.52,2.52,0,0,0,1.55-.81l.73-.71c.23-.22.46-.46.71-.72A2.61,2.61,0,0,0,189,287a1.83,1.83,0,0,0-.61-1.39A1.77,1.77,0,0,0,187,285a2.54,2.54,0,0,0-1.56.82l-.73.7Z" style="fill:#73ADFF"></path><path d="M192.24,254.64c-.06.35-.13.69-.19,1s-.13.65-.21,1a4.73,4.73,0,0,1-.45,1.23,2.86,2.86,0,0,1-.75.92,2.64,2.64,0,0,1-1.07.5,3.39,3.39,0,0,1-1.38,0,3.3,3.3,0,0,1-1.29-.52,2.45,2.45,0,0,1-.78-.86,2.86,2.86,0,0,1-.34-1.14,5,5,0,0,1,.06-1.32c.06-.35.13-.69.19-1s.13-.64.21-1a4.73,4.73,0,0,1,.45-1.23,2.86,2.86,0,0,1,.75-.92,2.75,2.75,0,0,1,1.06-.51,3.44,3.44,0,0,1,1.39,0,3.3,3.3,0,0,1,1.29.52,2.68,2.68,0,0,1,.78.87,3,3,0,0,1,.34,1.14A5,5,0,0,1,192.24,254.64Zm-5.3,1a2.61,2.61,0,0,0,.17,1.75,2.14,2.14,0,0,0,2.79.56,2.5,2.5,0,0,0,.83-1.55q.12-.52.21-1c.07-.31.13-.64.19-1a2.53,2.53,0,0,0-.17-1.76,2.13,2.13,0,0,0-2.78-.56,2.61,2.61,0,0,0-.84,1.56q-.1.53-.21,1C187.07,255,187,255.29,186.94,255.64Z" style="fill:#73ADFF"></path><path d="M121.73,185.71c.2.3.38.59.54.86s.34.56.52.87a5,5,0,0,1,.51,1.21,3.23,3.23,0,0,1,.07,1.19,2.76,2.76,0,0,1-.44,1.09,3.51,3.51,0,0,1-1,.92,3.34,3.34,0,0,1-1.29.49,2.55,2.55,0,0,1-1.17-.1,3,3,0,0,1-1-.61,4.46,4.46,0,0,1-.85-1c-.19-.3-.37-.59-.53-.86s-.34-.56-.52-.87a4.35,4.35,0,0,1-.51-1.21,2.85,2.85,0,0,1-.07-1.19,2.62,2.62,0,0,1,.44-1.09,3.75,3.75,0,0,1,2.32-1.42,2.66,2.66,0,0,1,1.17.11,3.12,3.12,0,0,1,1,.61A5,5,0,0,1,121.73,185.71Zm-3.2,4.33a2.53,2.53,0,0,0,1.31,1.17,2.14,2.14,0,0,0,2.42-1.48,2.52,2.52,0,0,0-.43-1.7c-.18-.32-.36-.61-.52-.88l-.54-.86a2.57,2.57,0,0,0-1.31-1.17A2.12,2.12,0,0,0,117,186.6a2.57,2.57,0,0,0,.44,1.71c.18.31.35.6.52.87S118.33,189.73,118.53,190Z" style="fill:#73ADFF"></path><path d="M109.83,174.79c.09.35.17.68.24,1s.15.64.23,1a4.61,4.61,0,0,1,.1,1.32,2.76,2.76,0,0,1-.3,1.15,2.54,2.54,0,0,1-.75.89,3.82,3.82,0,0,1-2.65.63,2.62,2.62,0,0,1-1.08-.46,2.93,2.93,0,0,1-.78-.89,4.74,4.74,0,0,1-.5-1.22q-.14-.52-.24-1c-.08-.3-.15-.63-.23-1a4.54,4.54,0,0,1-.1-1.31,2.76,2.76,0,0,1,.3-1.15,2.66,2.66,0,0,1,.75-.9,3.47,3.47,0,0,1,1.27-.57,3.28,3.28,0,0,1,1.38-.06,2.64,2.64,0,0,1,1.08.47,2.82,2.82,0,0,1,.78.89A4.6,4.6,0,0,1,109.83,174.79Zm-4.39,3.13a2.51,2.51,0,0,0,.88,1.51,2.14,2.14,0,0,0,2.77-.65,2.57,2.57,0,0,0,.11-1.76l-.22-1c-.08-.3-.16-.63-.25-1a2.54,2.54,0,0,0-.89-1.52,2.09,2.09,0,0,0-2.76.66,2.54,2.54,0,0,0-.11,1.75l.22,1Z" style="fill:#73ADFF"></path></g></g></svg>