<svg xmlns="http://www.w3.org/2000/svg" viewBox="0 0 500 500"><g id="freepik--Device--inject-15"><path d="M217.88,358.05l94-54.28a1.06,1.06,0,0,0,0-2l-8.69-5a3.86,3.86,0,0,0-3.47,0L205.69,351a1.06,1.06,0,0,0,0,2l8.72,5A3.86,3.86,0,0,0,217.88,358.05Z" style="fill:#e0e0e0"></path><path d="M309.3,94.2l-84.76,48.94a9.58,9.58,0,0,0-4.33,7.5V351.71c0,2.76,1.94,3.88,4.33,2.5l84.76-48.94a9.55,9.55,0,0,0,4.33-7.5V96.7C313.63,93.94,311.7,92.82,309.3,94.2Z" style="fill:#455a64"></path><path d="M224.54,143.14,309.3,94.2c2.14-1.24,3.91-.47,4.27,1.68a9.68,9.68,0,0,0-4.27-6.68l-3.52-2a9.57,9.57,0,0,0-8.66,0L212.35,136.1a8.91,8.91,0,0,0-3.06,3.23l12.19,7A8.75,8.75,0,0,1,224.54,143.14Z" style="fill:#37474f"></path><path d="M208,344.67a9.58,9.58,0,0,0,4.33,7.5l3.53,2a9.7,9.7,0,0,0,7.92.34c-2,.78-3.59-.37-3.59-2.84V150.64a8.8,8.8,0,0,1,1.27-4.27l-12.19-7A8.91,8.91,0,0,0,208,143.6Z" style="fill:#263238"></path><path d="M226.87,169.93,307,123.68c1.44-.82,2.6-.15,2.6,1.5V274a5.73,5.73,0,0,1-2.6,4.5l-80.1,46.25c-1.44.83-2.6.16-2.6-1.5V174.43A5.74,5.74,0,0,1,226.87,169.93Z" style="fill:#fff"></path><path d="M266.92,126.29a3.38,3.38,0,0,0-1.52,2.64c0,1,.68,1.37,1.52.88a3.35,3.35,0,0,0,1.52-2.64C268.44,126.2,267.76,125.81,266.92,126.29Z" style="fill:#37474f"></path><path d="M266.92,308.74a13.3,13.3,0,0,0-6,10.42c0,3.83,2.69,5.39,6,3.47a13.31,13.31,0,0,0,6-10.42C272.94,308.38,270.24,306.82,266.92,308.74Z" style="fill:#37474f"></path><path d="M252.53,141.77a6.73,6.73,0,0,0-3,5.28c0,1.94,1.36,2.73,3,1.76a6.73,6.73,0,0,0,3.05-5.28C255.58,141.59,254.22,140.8,252.53,141.77Z" style="fill:#37474f"></path><path d="M260,141.11c0,1.3,1,1.79,2.17,1.1l20-11.57a4.64,4.64,0,0,0,2.17-3.6c0-1.29-1-1.78-2.17-1.09l-20,11.57A4.64,4.64,0,0,0,260,141.11Z" style="fill:#37474f"></path><path d="M214.76,176.37a5.39,5.39,0,0,1,2.44,4.22c0,1.56-1.09,2.19-2.44,1.41a5.4,5.4,0,0,1-2.43-4.22C212.33,176.23,213.42,175.6,214.76,176.37Z" style="fill:#37474f"></path><path d="M214.76,195.15a5.39,5.39,0,0,1,2.44,4.22c0,1.55-1.09,2.18-2.44,1.41a5.4,5.4,0,0,1-2.43-4.22C212.33,195,213.42,194.37,214.76,195.15Z" style="fill:#37474f"></path><path d="M214,176.75a5.39,5.39,0,0,1,2.44,4.22c0,1.55-1.09,2.18-2.44,1.41a5.39,5.39,0,0,1-2.44-4.22C211.57,176.6,212.66,176,214,176.75Z" style="fill:#455a64"></path><path d="M214,195.52a5.39,5.39,0,0,1,2.44,4.23c0,1.55-1.09,2.18-2.44,1.4a5.36,5.36,0,0,1-2.44-4.22C211.57,195.38,212.66,194.75,214,195.52Z" style="fill:#455a64"></path><path d="M325.82,129.89c0-1.66-1.16-2.33-2.6-1.5l-9.59,5.53-70.51,40.72a5.73,5.73,0,0,0-2.6,4.5V327.92c0,1.66,1.16,2.33,2.6,1.5l70.54-40.73,9.56-5.52a5.73,5.73,0,0,0,2.6-4.5Z" style="fill:#fff"></path><path d="M326.82,129.89a2.57,2.57,0,0,0-4.1-2.37l-9.15,5.29h0l-70.95,41a6.66,6.66,0,0,0-3.1,5.37V327.92a2.77,2.77,0,0,0,1.26,2.55,2.29,2.29,0,0,0,1.18.31,3.42,3.42,0,0,0,1.66-.49l71-41h0l9.13-5.27a6.75,6.75,0,0,0,3.1-5.37ZM313.59,287.58l0,0-.82.48h0l-70.11,40.48a1,1,0,0,1-.84.18c-.13-.08-.26-.36-.26-.82V179.14a4.81,4.81,0,0,1,2.1-3.64L313.7,135h0l10-5.79a1,1,0,0,1,.84-.18c.13.08.26.36.26.82V278.67a4.81,4.81,0,0,1-2.1,3.64l-9.13,5.27Z" style="fill:#BB0000"></path><path d="M283.17,164.46c9-5.18,16.25-1,16.25,9.39s-7.28,23-16.25,28.14-16.25,1-16.25-9.38S274.2,169.65,283.17,164.46Z" style="fill:#BB0000"></path><path d="M283.17,172.62c2.91-1.68,5.27-.32,5.27,3a11.65,11.65,0,0,1-5.27,9.13c-2.91,1.68-5.27.32-5.27-3A11.65,11.65,0,0,1,283.17,172.62Z" style="fill:#BB0000"></path><path d="M293.44,190.54c0-5.52-3.87-7.76-8.66-5l-3,1.73c-4.78,2.76-8.66,9.48-8.66,15v1.49c2.77.91,6.25.42,10-1.77a32,32,0,0,0,10.27-10.17Z" style="fill:#BB0000"></path><path d="M283.17,172.62c2.91-1.68,5.27-.32,5.27,3a11.65,11.65,0,0,1-5.27,9.13c-2.91,1.68-5.27.32-5.27-3A11.65,11.65,0,0,1,283.17,172.62Z" style="fill:#fff;opacity:0.7000000000000001"></path><path d="M293.44,190.54c0-5.52-3.87-7.76-8.66-5l-3,1.73c-4.78,2.76-8.66,9.48-8.66,15v1.49c2.77.91,6.25.42,10-1.77a32,32,0,0,0,10.27-10.17Z" style="fill:#fff;opacity:0.7000000000000001"></path><path d="M251.73,224.84l20.91-12.07c1-.55,1.73-.11,1.73,1v.69a3.82,3.82,0,0,1-1.73,3l-20.91,12.07c-.95.55-1.73.1-1.73-1v-.69A3.83,3.83,0,0,1,251.73,224.84Z" style="fill:#BB0000"></path><path d="M251.73,224.84l20.91-12.07c1-.55,1.73-.11,1.73,1v.69a3.82,3.82,0,0,1-1.73,3l-20.91,12.07c-.95.55-1.73.1-1.73-1v-.69A3.83,3.83,0,0,1,251.73,224.84Z" style="opacity:0.1"></path><path d="M250.87,239.41l63.26-36.52c.47-.28.86-.06.86.5v7.38a1.94,1.94,0,0,1-.86,1.5l-63.26,36.52c-.48.28-.87.05-.87-.5v-7.38A1.92,1.92,0,0,1,250.87,239.41Z" style="fill:#BB0000"></path><path d="M250.87,239.41l63.26-36.52c.47-.28.86-.06.86.5v7.38a1.94,1.94,0,0,1-.86,1.5l-63.26,36.52c-.48.28-.87.05-.87-.5v-7.38A1.92,1.92,0,0,1,250.87,239.41Z" style="fill:#fff;opacity:0.2"></path><path d="M251.73,257.67l20.91-12.07c1-.55,1.73-.1,1.73,1v.69a3.81,3.81,0,0,1-1.73,3l-20.91,12.07c-.95.56-1.73.11-1.73-1v-.69A3.85,3.85,0,0,1,251.73,257.67Z" style="fill:#BB0000"></path><path d="M251.73,257.67l20.91-12.07c1-.55,1.73-.1,1.73,1v.69a3.81,3.81,0,0,1-1.73,3l-20.91,12.07c-.95.56-1.73.11-1.73-1v-.69A3.85,3.85,0,0,1,251.73,257.67Z" style="opacity:0.1"></path><path d="M250.87,272.24l63.26-36.52c.47-.28.86-.05.86.5v7.38a1.94,1.94,0,0,1-.86,1.5l-63.26,36.52c-.48.28-.87.06-.87-.5v-7.38A1.92,1.92,0,0,1,250.87,272.24Z" style="fill:#BB0000"></path><path d="M250.87,272.24l63.26-36.52c.47-.28.86-.05.86.5v7.38a1.94,1.94,0,0,1-.86,1.5l-63.26,36.52c-.48.28-.87.06-.87-.5v-7.38A1.92,1.92,0,0,1,250.87,272.24Z" style="fill:#fff;opacity:0.2"></path><path d="M276.1,276.43l25-14.41c1-.56,1.74-.11,1.74,1v7.72a3.82,3.82,0,0,1-1.74,3l-25,14.42c-1,.55-1.73.1-1.73-1v-7.73A3.86,3.86,0,0,1,276.1,276.43Z" style="fill:#BB0000"></path><path d="M276.1,276.43l25-14.41c1-.56,1.74-.11,1.74,1v7.72a3.82,3.82,0,0,1-1.74,3l-25,14.42c-1,.55-1.73.1-1.73-1v-7.73A3.86,3.86,0,0,1,276.1,276.43Z" style="opacity:0.1"></path></g><g id="freepik--Character--inject-15"><path d="M335.3,243.85s-12.28-16.94-13-19c-.57-1.52,0-3.78.18-4.83s.34-3.39.52-4c.3-1.14-1.17-.91-2,.13s-1.11,3.12-1.54,3.46-3.7-4.43-5.41-6.63-2.78-3.54-3.83-2.72c-.75.59-.19,1.87,1.05,3.75a33.77,33.77,0,0,1,2,3.15c.19.41-.83.44-1.38,1.29-.43.66,0,1.73-.6,2.24a1.89,1.89,0,0,0-.48,2.47,16.34,16.34,0,0,0,4.23,4.48c1.84,1.27,2.58,1.72,3.67,3.45s10.87,19.4,11.53,20.46,1.93,3.22,3.86,3.28,17.73-13.54,18.54-14.22c2.6-2.17,3.43-2.48,3.87-.53a19.25,19.25,0,0,1,.34,2.1c.31,2.48,2,11.34,2,11.34s8,3.87,14.57,2,8.79-4.66,8.79-4.66l-3.29-5.36c.89-2.21,5-11.17,6.33-17.44l-20.6-3.33c-.42-.09-1.1-.26-2-.49-1.13-.3-4-1.29-6.17.61-7.08,6.17-21.16,19-21.16,19" style="fill:#ffa8a7"></path><path d="M376.14,347.79l-3.69,5.13a12.26,12.26,0,0,0,5.36,1.15c3.31.12,4.22-1,4.34-1.22.56-1.2-.31-3.36-.55-5.22Z" style="fill:#37474f"></path><path d="M372.66,350.46s-4.48-.29-7.57-.67-5.54,1.12-4.82,2.39,2.43,2.33,5.09,3.22c2.27.77,5,1.32,7.36,2s4,1.57,5.37,1.09c1.53-.53,2.19-1.14,2.06-2.26a48.54,48.54,0,0,0-1.24-4.72Z" style="fill:#37474f"></path><path d="M382.15,342.64s-.56,4.66-.6,5.66-4.55,1.32-5.41-.51l-.14-5.7Z" style="fill:#f28f8f"></path><path d="M377.61,345.5l1.61,7.08s.15.86-3.53,1.41-9.46-1.93-10.45-2.43-1.1-1.51,2.52-1.31,4.9.21,4.9.21l-1.18-3.13Z" style="fill:#ffa8a7"></path><path d="M385.19,228l2.55-.71s5.33,16.87,5.92,18.5,1.26,3.35.11,5.36c-1.37,2.39-8.58,12-8.58,12l-4.58-4.48,5.2-9.52-4.6-9.3Z" style="fill:#f28f8f"></path><path d="M359,206.09a7.52,7.52,0,0,1,.11-7.27c2.54-4.71,8.2-7,14.94-6.13,3.12.41,6.8,3,8.81,6.87,2.22,4.29,2.43,12.93,3,16.2Z" style="fill:#37474f"></path><path d="M358.82,207.94s-1.6,3.05-1.32,3.33a4.19,4.19,0,0,0,1.34.5Z" style="fill:#ffa8a7"></path><path d="M363.68,198.3c-1.74,1.13-4.74,3.21-4.87,10.06-.14,7,.86,9.31,1.9,10.12.7.55,4.81.27,6.57-.14s6.83-2.92,8.66-6.73c2.15-4.48,1.71-11-1.48-13A11.14,11.14,0,0,0,363.68,198.3Z" style="fill:#ffa8a7"></path><path d="M382.15,250.82c3.08,4.8,6,9,6.64,14.42,1.32,11.39-3,24.41-3.93,32.84a15.19,15.19,0,0,1,2.9,8.22c0,3.49-5.61,36.34-5.61,36.34s-4.08,1.24-6.15-.55l-3.85-60.43,2-7.36Z" style="fill:#BB0000"></path><path d="M382.15,250.82c3.08,4.8,6,9,6.64,14.42,1.32,11.39-3,24.41-3.93,32.84a15.19,15.19,0,0,1,2.9,8.22c0,3.49-5.61,36.34-5.61,36.34s-4.08,1.24-6.15-.55l-3.85-60.43,2-7.36Z" style="opacity:0.2"></path><path d="M372.15,281.66l2-7.36a49.13,49.13,0,0,0,11-4.37s-2.08,3.79-8.06,5.87L374,285.25l-.26,21.65Z" style="fill:#BB0000"></path><path d="M372.15,281.66l2-7.36a49.13,49.13,0,0,0,11-4.37s-2.08,3.79-8.06,5.87L374,285.25l-.26,21.65Z" style="opacity:0.30000000000000004"></path><path d="M382.15,250.82c1.65,2.7,5.59,7.3,4.75,11.73-1,5.36-3.9,9.13-12.72,11.75l-8.28,30s4.31,4,5.63,7.87,6.08,33.35,6.08,33.35-1.48,2.41-6.13,1.83c0,0-16.21-37-17.35-39.41a12,12,0,0,1-1.37-8.05c.51-3.88,6-46.35,6-46.35Z" style="fill:#BB0000"></path><path d="M382.15,250.82c1.65,2.7,5.59,7.3,4.75,11.73-1,5.36-3.9,9.13-12.72,11.75l-8.28,30s4.31,4,5.63,7.87,6.08,33.35,6.08,33.35-1.48,2.41-6.13,1.83c0,0-16.21-37-17.35-39.41a12,12,0,0,1-1.37-8.05c.51-3.88,6-46.35,6-46.35Z" style="opacity:0.2"></path><path d="M385.19,228l-20.6-3.33c-.42-.09-1.1-.26-2-.49h0s-.88,12.92-6.17,15.88h0c.13.62.24,1.31.34,2.1.31,2.48,2,11.34,2,11.34s8,3.87,14.57,2,8.79-4.66,8.79-4.66l-3.29-5.36C379.75,243.25,383.89,234.29,385.19,228Z" style="fill:#BB0000"></path><path d="M385.19,228l-20.6-3.33c-.42-.09-1.1-.26-2-.49h0s-.88,12.92-6.17,15.88h0c.13.62.24,1.31.34,2.1.31,2.48,2,11.34,2,11.34s8,3.87,14.57,2,8.79-4.66,8.79-4.66l-3.29-5.36C379.75,243.25,383.89,234.29,385.19,228Z" style="fill:#fff;opacity:0.7000000000000001"></path><path d="M379.76,243.35a58.15,58.15,0,0,1-8.57,4.23,16.1,16.1,0,0,0,7.67-2.12Z" style="fill:#BB0000"></path><path d="M363.17,198.64s-1,6.5,1.36,10.32c0,0,.88-2.59,3.07-2.1s2.31,3.38.77,5a3.19,3.19,0,0,1-3.24,1s-.35,4.7-.54,8.64-1.23,12.53,3.2,16,15.55,4.69,20.76-2.59c2.9-4.05-.95-11.21-2.74-19.24-1.65-7.38-2.58-18.32-10.41-20.08S363.17,198.64,363.17,198.64Z" style="fill:#37474f"></path></g></svg>